/* XPM */
static char *England[] = {
/* width height num_colors chars_per_pixel */
"    77    40      256            2",
/* colors */
".. c #281a14",
".# c #7c827c",
".a c #d4b884",
".b c #881d12",
".c c #884e2c",
".d c #bf7e2f",
".e c #b74c22",
".f c #d49a38",
".g c #e4b848",
".h c #ba6724",
".i c #883325",
".j c #bd9b6f",
".k c #c07f60",
".l c #dfc699",
".m c #cd6821",
".n c #946a38",
".o c #c3cfcc",
".p c #b13418",
".q c #cc4c2c",
".r c #e4c674",
".s c #e39d27",
".t c #704a28",
".u c #d6812a",
".v c #a29c84",
".w c #e6ab37",
".x c #a91a10",
".y c #561d12",
".z c #b75c26",
".A c #e3b86f",
".B c #ac4c1c",
".C c #c1915b",
".D c #d26b48",
".E c #b66851",
".F c #dca577",
".G c #c43d1f",
".H c #b4b7b0",
".I c #ccdbda",
".J c #58331a",
".K c #a35b43",
".L c #dd9d53",
".M c #da922a",
".N c #ae8142",
".O c #e4d898",
".P c #e4c073",
".Q c #a2371e",
".R c #a46d21",
".S c #b1411c",
".T c #b84d36",
".U c #c4b9af",
".V c #a92a15",
".W c #721d16",
".X c #c38f46",
".Y c #caad80",
".Z c #88281f",
".0 c #a58681",
".1 c #afaea5",
".2 c #a06858",
".3 c #cdd1cb",
".4 c #a14c3c",
".5 c #d07624",
".6 c #e2ac5c",
".7 c #d68f62",
".8 c #b67558",
".9 c #b9541f",
"#. c #944418",
"## c #dc8157",
"#a c #ecc879",
"#b c #e5a42d",
"#c c #dce2dc",
"#d c #a25342",
"#e c #cc5e24",
"#f c #b95e43",
"#g c #be813e",
"#h c #b97329",
"#i c #d79343",
"#j c #ecc177",
"#k c #742818",
"#l c #c2966d",
"#m c #d2734a",
"#n c #b0c7cf",
"#o c #f4da9c",
"#p c #ecbf4c",
"#q c #b09a8c",
"#r c #be8862",
"#s c #bc4521",
"#t c #bc3819",
"#u c #d98644",
"#v c #aa2010",
"#w c #981c10",
"#x c #c44d21",
"#y c #dea457",
"#z c #b72915",
"#A c #3e1a15",
"#B c #cd9c6e",
"#C c #ecb971",
"#D c #d4dddc",
"#E c #a7743c",
"#F c #bcb0a4",
"#G c #a4926c",
"#H c #d17539",
"#I c #c47353",
"#J c #edcf88",
"#K c #d15f3b",
"#L c #8f602e",
"#M c #e1b06e",
"#N c #af8e5f",
"#O c #c9c6b6",
"#P c #7c1f1a",
"#Q c #ccd5d5",
"#R c #c28841",
"#S c #c46d25",
"#T c #943424",
"#U c #ebd19a",
"#V c #c4d2d5",
"#W c #b23a19",
"#X c #ac6047",
"#Y c #b1442d",
"#Z c #992818",
"#0 c #a07650",
"#1 c #ecaf5e",
"#2 c #bcc5c5",
"#3 c #ca9c54",
"#4 c #ecb747",
"#5 c #df9d40",
"#6 c #6c665c",
"#7 c #d4872a",
"#8 c #e9b23c",
"#9 c #cc9461",
"a. c #e1c087",
"a# c #6c3a34",
"aa c #7c5e3c",
"ab c #8c7761",
"ac c #582e20",
"ad c #948d81",
"ae c #a2411e",
"af c #644624",
"ag c #797971",
"ah c #d0c49c",
"ai c #6c3e14",
"aj c #af936c",
"ak c #949e9c",
"al c #d4a75c",
"am c #402620",
"an c #8c5f57",
"ao c #321f14",
"ap c #c7ba9c",
"aq c #846e54",
"ar c #a8865c",
"as c #9f6b37",
"at c #8b4034",
"au c #947f6c",
"av c #f5e49e",
"aw c #7c423c",
"ax c #944f37",
"ay c #7c4a2c",
"az c #d4ad78",
"aA c #ecdebc",
"aB c #d4cac4",
"aC c #ac7455",
"aD c #c88828",
"aE c #a1561c",
"aF c #b8553a",
"aG c #aea599",
"aH c #a4a6a4",
"aI c #9f938a",
"aJ c #9d4333",
"aK c #ecd79b",
"aL c #c45d2c",
"aM c #c46a48",
"aN c #643224",
"aO c #b48a6c",
"aP c #ac6a4d",
"aQ c #c4742c",
"aR c #7c271a",
"aS c #dc7649",
"aT c #d49b4d",
"aU c #7c3420",
"aV c #642818",
"aW c #c2a473",
"aX c #d88860",
"aY c #885048",
"aZ c #d16b3b",
"a0 c #641e12",
"a1 c #dcaa8c",
"a2 c #e49524",
"a3 c #cc9244",
"a4 c #c45e40",
"a5 c #cc9272",
"a6 c #dc6244",
"a7 c #c5cac9",
"a8 c #9c736a",
"a9 c #b4815c",
"b. c #ac6a40",
"b# c #944434",
"ba c #ce542f",
"bb c #c74524",
"bc c #cea374",
"bd c #cc8964",
"be c #ccb294",
"bf c #ecb26c",
"bg c #ecc999",
"bh c #dc6a45",
"bi c #4c1a14",
"bj c #94665c",
"bk c #341614",
"bl c #c46a36",
"bm c #cc8127",
"bn c #e3b763",
"bo c #cc8158",
"bp c #e3c98a",
"bq c #dcb888",
"br c #dcd6b4",
"bs c #ac4d3a",
"bt c #c45618",
"bu c #e5a33d",
"bv c #ac533d",
"bw c #ebc05f",
"bx c #cc8940",
"by c #f4d294",
"bz c #c45639",
"bA c #bc6e34",
"bB c #843a1c",
"bC c #705234",
"bD c #bc6220",
"bE c #b96e4c",
"bF c #5c3a28",
"bG c #9f624a",
"bH c #ccb284",
"bI c #8c2e28",
"bJ c #9c6e64",
"bK c #e2b264",
"bL c #d89654",
"bM c #b47a34",
"bN c #702e18",
"bO c #d07a52",
"bP c #972216",
"bQ c #b41a14",
"bR c #b4210f",
"bS c #a49b98",
"bT c #ecc987",
"bU c #ecc187",
"bV c #ecb962",
"bW c #ecdab0",
"bX c #d4e2e1",
"bY c #c47a54",
"bZ c #bccacc",
"b0 c #7c521c",
"b1 c #c46224",
"b2 c #d4a25e",
"b3 c #882216",
"b4 c #cc6e1c",
"b5 c #c4d6cc",
"b6 c #54221c",
"b7 c #c29658",
"b8 c #deaa70",
"b9 c #b9beb8",
/* pixels */
"bZ#Q#Q#Va7#V.3#V.3a7.oa7a7#2.o.oa7#2a7#2a7a7#2a7#V.o#V.o.3.o.o#V#V.o.obZbZ#2bZ#V#V.o.obZbZ.o#V.obZ#2a7b5#Va7#V.o.obZ.o#V.o.o.obZ#V#Q#V#V#V.o.o#Va7#2.o#V.o",
"#Q#V.o.3.o#V.o#Q.3#Qa7#Va7a7.3.oa7.o.oa7.o.3a7bZa7.oa7.3.o#V.o.3.o.o.o.obZbZbZ#Va7.obZbZbZbZ.o.o.oa7#Va7#V#V.o.o.o#V.o#QbZ.3#V#V.o.o#V.3#V.o.o#V.o.o.o.o#V",
".obZa7bZ#V.oa7#Q.3.o.o.oa7#V#Va7.3#Q.o#Q.3.o.3a7a7.o#Qa7.3.3#Qa7#V.o#VbZ#V#V#V#V#n.obZbZbZ#VbZ#V.obZ.o#V.o#Q#V#Qa7#V.obZ#Q#V#V.o.o#V.3b5#V.3.o.o.3.o.3#V#V",
".o#VbZ#Va7.3.o#V.o#Q.3a7.3a7#Q.oa7.3.3a7.3.3.o.o.o.3.o#V.3.3bZa7#V.o.o#VbZ#V#VbZ#V#VbZbZ#V#V#V#V#V#Q#V.o.o#Q.o.o.o#Q#V#Q#Q#Q.o.obZ#Vb5#Q#Q#V.o.3.o.3b5.3#V",
"#Va7bZ.obZb9.H.1aH.H.1.1aHaGaGaIadaIbSaIaIaIbSaG.1.Hb9#2b9b9#V#V.3#V#VbZbZ#V.obZbZ#VbZ#VbZ#V#Q.o.o.oa7#Va7#V.3.3#V#Q#Q.3#Q#V.3bZ.o.3#Q#Qb5.o.o.o.o.o#Vb5.3",
".3.o.o.o#Gb#bvaFaFaFaFaFbz.Tbs.TaFbzbzaF#KaF.TaF#Y#Y#YaJ.Qa#b9#Va7#Q.o#VbZ#V#VbZ#VbZ#V#VbZ#V.obZ.o#V#Va7#V.3#V#V.o#V#V#Q.o#Vb5bZ.o#Q#V#Q#V#V.3.3.o.o#Qb5#V",
".o.o.3a7.0aFbO###m#maS.D#maS#mbhbzba.q.e.qbz#x.qbbbbbb#z.V.ib9bZ#V#Q.o#V#V.ob5bZ#VbZ#V#VbZ#VbZbZ.3#VbZbZ.o.o#V.o.o#V#VbZ#V.oa7#VbZb5#V#V.o.o#V.o.o#Vb5#V#V",
"#Q.o.oa7a8a4#mbz.D.Dbh#K#Kbh#K#K#Kb1b1aZbt#x#s.G#t#s#s#W#vbIb9#Va7#VbZ.o#Q#V#Q#V#VbZ#Va7#V.o#Va7#V#V.o.o.o#V.o#V#V.o.ob5.3.o#V#VbZ#V#Q#V#Vb5.3b5.3b5#Q#Q#V",
"#V#Q#Qa7bjaMaX.s.D#K#K.D#KbabababmblaS#HaZ#m#m#u.5#u.ubA#v.ibZa7#V.3#V#V.o.o#V.o#V#V#V#V.o.3#V.o#Va7#V.o#V.oa7.o#Q#Q.o#Q.o#V.o.o.o#V.3b5.3#V.3#V#Q#V#Q.3.o",
".obZ.o.obj.DaX.6.5b1bobLbLbb.qa6#m.u.u.5b4b1aZ#s.V#v#v.x#v#T#2.3.o#Q#V.3.o#Q#Q#Q#V#Q.o#V#V#V.3.o.3#Q.oa7.3#Q.3.o#V.3#V#V.3.U.v#O.o.3.3#Qb5#Q.3.3#Vb5.I.o.3",
"#D#Q.o.3bj.Dbh#K#5a2.6#4#4#mbOaSaZaLaL#s.ebu.Q#v.x.x#v.Q#v.ia7a7bZ#Q#Q#2#V#Q.o#Q.o.o.o#V#Q#Q#Q#2.H.1adab#GaOaGaWaGaG.1aGau.N#R.d#NaW.l.laWabaqagbZ.3#V.3.o",
"#V.o.obZa8.DaSbh#HbK#pbV.g#8bw#pbwbw.g#4#8.w#1bx#S#H#y#m#w.iakag.##6bCaaaaaIaG.1aI.v#qadagabar#Nas.Jas#haT.A.Pbp#U#Ua..P#5bxa3#yal#j.PbpbTbp.P.t.Hb5b5b5b5",
"#Q#Q.o.oa8#mbhbh.D##b2.w#4#b#4#p#8.M#SbDbm.s#b.s.s#5.f.L.Q#P..ao.Jaf.N#gbM#R#R.Cbcaz#Mal.Cb8#M#yb8#EaT.d#ybn#j.rbp#UbT.A#C.6.A.P.PbTbp#J#J#Jb7b7.v#V#V#Q#Q",
"bZ.o#V.3a8a4#Ka6bhaZ.6#p#b#7.ubmb1.Q.5.u.s.MaQ#5#H#ZbDbu.V#k..ac#L#gaTb2a3#3#Ma.#abpbpbTbTa..Pa..A.A#y.Xb2bw.P#J#U#UbT#jbK#M.PbT.P#UaKaKaK.r.rbn#q.o#Vb5b5",
".I#Q#Q.o.0#K#K.D#u#4#8.w.5bb.GbR#W.pae.s.s.u.S.p#w.S#i.6#Z#Zaob0.N#Rb7al.Xb7.AbTbTbp#J#Uby#U#JbT.P.Pb8aT#ybn.r#abpaA#obU.6.6.Pbp#U#oaAbW#U#a.rbn.v.o#Qb5#Q",
"#D.o.oa7.0.T##.A.w.MaD.uba#z#z#vbv#y.Mbx#SbE#v#v.V#Ib2aF.xb3ac.caJ#Xbv#.#dbG.Pa.bTbpbg#U#o#U#U#J.A#daJb..6bw#a#J#UaA#UbTbKbK.P#Jbc#d.4.8#J.P.r.faG#Vb5#V#V",
"#Q#V#2#V.0bs.G#HaZ#K.G#t#t#z#zbQ#Wbt.S#W.p.p.p.p.p.p.V#v.xb3bNbY.l.Kbv#rbU#Xbw.P#U#U#UbybW#U#UbgazaC#o.Kbn.Pbp#JaKaAbybU.A.A.r#Ua5.8avaP.r.Pbn.Xap#Q#Q#V.I",
"#Q#V.o#Q#qae.qbb.Gbb#t.5#i.5bR#Wb1.9.S#s.B.e.e.9b1bm.5#v.x#Z.8#oaP#M.PbEbpb.azbc.Ybe#lbr#obe#raW.a#dav.K.6#r.Naz#Ube.Ybc#r#Mbpa.#raYavb..rbnbKb2ah#V.I#V#V",
"#D.I#Q.o.U.Q.DbL#s#z#z#i#4#y#v#v#s.9btb4.m.m.m#e#z#v.xbR.x#Zby#oax#B#r.K#l#E#T#I.EaFaX#daC#f.kbO#fatav#d.4.8bd.E.i.8#Ibv.7#dbc.4a5.kavbEbwbn.6#Rahb5b5#V#V",
"#D#Q#V.3aB.i.p#5a2.m.pbx#8bVb4bt#s.S.S.9.9.u.M#s#v#v#v.x.xbsav#o#IbY#9.FbU.8#IaW#obGbW.k#X#o.W#oaOatav#d#B.k.Kav.i#r#o#d.l#B#P#jaC.2avb..Pal#5.N#O#V#V.I#V",
"#D#D#Q#Q.3bI#zbAa2.sa2#8#b#4.s.w#p#8.w#b.s#b.s#b.m#5bl#v.x#davaKbG.K.K.Kbc.8bc#l#U.Wbp#Ba9by#P#U#rb#av#dbjb#.8avb#a9#o.W.Yazb##oaxb#avaPbwalaT#g.3bZ#V#V#V",
"#V#Q.I#Q#QbIbR.x.T.z.7.z#i.w.s.s.s.5.Bb4#7#Wbt.M.5#Sbu#Z.xaeav#o#dbgbga1a9.8#M#l#U#P#Ua5ataKbv#U#daJav#daJ.FaPavb#a9#ob3azazaxav.4aJavb.bn#ia3.R.o#VbZ.I#V",
".I.I#V.I#Q.i#v#Y#K.p.p.5.s#5.B.V#Z#Wb4a2b4#vbR.V#v.V.u#u#v.bbHavaPbe#U.8a1.8a5#l#U.WbTa5bI.Fat.Z.K.Kav#dbq#B#davaJa9#o.Wazaz.iavbGb#av#XalaT#R#E#2b5#V.I.I",
".I.I#V#Q#QaY#v#W.6#ba2bm#S.V#v.e.5.Sa2a2.5#t#vbQ#v.p.hae#va0aN.a#Ubvbs.kaK.k.Eaz#U.Q#obqaC#obgbU#I.K.O.8.YaKaO#UaCa5aK.4bqahb3.Ca..Cbp.8#g#y#g.n.o#V#V#V#V",
"#Q#D.I.I#Qan#v#v.e#S.S#v#v#v.x.Q.u.5bD#W#W#xbt#x.V.b.W.W.b.yay#f.KaCaP#d#r.8bdbsbsaJ.4ae.4a.#laW#UbIbsaFbvbs#f.4aFbv.4bvbsaFbY.8bsbsbvbY.A.6a3#L#2b5.I#V.I",
"#D.I.I#Q#Qbj#vbQ#vbR.x.V.LbL.e#vbR.p.5bD#.aRbNai.R#hbD#P.bbi#LbnbfbL.F#CaC.8#UbU#C#Mbf.7#r#rb3#T#l#r#U#J#a#a#a#a.A#Cbn#j#a#a.r#a.P#JbKbK.P.6aT#E.o#V.I#V.I",
".I.I.I#D#Q.0bP.xbd.SbQ.V#4#4#s#vbR#zbD.h#h#SaEaE#.#ka0.Wb3ac.nbK.6#jbU#Cbo.kbgbU#C#C.6bfbv#X.8#X.EbgbT#J#J#J#a#C.6.6bK.P#a#a#j.Abn#abnalbwbn#3#0.I#Q.IbX#V",
".I#D.I#D#D.Ub3#vbY#i.p.9#4#p#y.L#ubobA.z.cas.d#7aEaU.W.Wb3am.N#ybf#CbU#CbfbUbgbU#M#M#1.6.A#y.F#C#a#J#J#J#Jby.P.A.6#y.L#3#j#a#abK.6bK.6.6.6bna3#N.I.I.I.I.I",
"#cbX#D.I#Q#QatbR#Wbx#b#b#8#4.s#b.w.w#b#b#b#b#b.g#9a3.i#P.Wao.NbxaT#y#y.6#C#CbU#Cbfb8.L.6bV#jbn#a#a#a#J#a#a#a#j#C#5aT#har#abU#j#CaT#5b2aTaT#y#R#N.I.I#Q.I.I",
"#D.I#D#D#Q#Q.0#ZbQ#t.8bd#f#i.s.s.M.s.M#haD.d#La2.w#Mb3#wb6ao#L#E#RbxbL#y#M#Cb8#Mbf#y#i#5#ybVbVbV#j#a#a#a#abw#j#M#5bx.taja.a.#j#M#y#R.dbx.X#5#Raj.I#D.I.I#D",
".I.I#Q.I#D#Qa7.ZbR#v#v#v#fbu.sb4b3b3bB.Ba2bB#A.JaE.w#fb3amamaNb0as#0ar#l.ja9#9.6.L#ubL#i.Lbf.6#M#C#j#a#a#j.Pb8b2aT.C.U#D.3brahbH#Ma3.Xa3aDa3#i#qbXbX#D.I#D",
".I.I.I.I#D#Q#Qan#Z#f.7#5.w.s.5b3.bb3.h#b#b#h#AbkaV.fbobG#F#O#O.3#D#Q#Q.3#Q.3#O#l.Xbxa3#u#i#y.A.AbUa.az.j.j.j.jar.YaB#D.I#D#Q#Q.3#Oap.YaW.Aalb7aG#D#D.IbX.I",
".I.I.IbXbX.I#QaG#P.VaQbx.Sae.b#w.h.Bb4.w.dbibkbFal.6bB#2#D#Q#D#D#D#D#D#Q.I.3#D#Qap#B.X#Ra9.jbr#D#c#D#D#D#D#D#Q.I.I.I#D#Q.I#D.I.3b5.I#Q#Q#D#Q#O.I.I.I.I#DbX",
"bX.I#D#DbX#Q#D#QaY.Z#vbP.b#P.bb3b..s.Rb0#Abk#A#A.t#T.0#c#D#D#DbX#D.I#D#Db5.I.I#D#D#D.3#Q.I#D.I#Q#D#D#Q.I#Qb5b5#Q.Ib5#Q.I.I#Q.Ib5.I#Q.I.I.I.I.I.I.I#Q.I.I.I",
".I.I.I.I.I#Q.I.Ia7atbP#w.b.b#P#P.WaVbi..bkbkbk#A#Pan#D#Q#D.I#D#DbX#Q#Q#D#D.I#D#D#D#DbX#D#D.I#DbX.I.I.I.I.I.I.I.I#D.I.I.I.I#D#D.I#Qb5.I.Ib5#Db5#D.I.I.I.I.I",
".I.I.I.I.I.I.I#Q#D#Oat#Z.b.b#P.W.W.y#Abkbkbkbi#Pawa7.I#D#D#D#D.I#D#Db5#Db5#D.I.IbXbX#D#DbX#DbX.I#D.I#D#D.I.I#D.I#D.I#D#D.I#D#D.I#D.I.I.I#D.I#D#D#D#D.Ib5b5",
".I.I.I.I#V#Q.I.I#D#V.3an#Pb3#P.W.W.Wbi.y.ya0#Pan.3#D.I#DbX.I.I#D.I.I#D.I.I.I#D#D.I#D.I#D#D.IbXbXbX.I.I.I.I#D.I.IbX#D.I.I.I#D.I#Q#Db5#D#D.I#D#D#D#D.I.I.Ib5",
".I#V.I.I.I#V.I.I.I#D#Q#Q.HbJaUb3b3b3b3.W#PaUaI#D.I#D#D#DbX.I.I.I#D#D.I#Q.I#D#D#D.I#Q#D#DbX.IbXbXbX.I#DbX.IbX#D#D.I.I.I.I.Ib5#D.I.3.I.I#D.I.I#D.I.I#D#Q#Db5",
"#V#V.I#V#V.I#V.I.I.I.I#Q#Q#Q#OaGaIauabaIaG.3#Q#D#DbX#D#DbX#D.I.I.I.I#D.I.IbX.IbX#D#Db5bXbXbXbXbX.I.IbX.IbXbX#DbX#D.I.I#Q.I.I.I.I.I#D.I.I.I.I.3.I#D#D.I.I.I",
"#n#n#n#n#n#V#V#V.I#V#V.I.I#Q.I#Q#V.I#Q#Q.I#D.I.I#D.I.I.I.IbX.I#D#DbX.I.I.I.I#D.I#D#D.I.I.IbXbXbX.I#D.IbXbX#D#DbXbX.I.I#Q#D.I.I#Db5#Db5.I.I#D.I.IbX.I.I.I.I"
};
