/* XPM */
static char *France[] = {
/* width height num_colors chars_per_pixel */
"    74    41      254            2",
/* colors */
".. c #220917",
".# c #2b8cd9",
".a c #ac8a3c",
".b c #97caeb",
".c c #7c2a0c",
".d c #9f8e7c",
".e c #114baf",
".f c #f4cb54",
".g c #c4ab64",
".h c #f4ea7a",
".i c #815637",
".j c #bc5510",
".k c #440a08",
".l c #4b4755",
".m c #d1c8ae",
".n c #cf8a14",
".o c #d58e79",
".p c #21296c",
".q c #b97419",
".r c #8c8664",
".s c #f2ac12",
".t c #d78749",
".u c #e1da77",
".v c #eaa84c",
".w c #d0e8ef",
".x c #cb6c51",
".y c #5e6784",
".z c #61ace5",
".A c #0f2988",
".B c #f4bc4e",
".C c #2268c6",
".D c #bbdceb",
".E c #a0b690",
".F c #ccaf82",
".G c #d69b1a",
".H c #090d6c",
".I c #d57919",
".J c #f1d6af",
".K c #303480",
".L c #429be3",
".M c #eaab7e",
".N c #e0c894",
".O c #b95e19",
".P c #314789",
".Q c #fcfba9",
".R c #f4d769",
".S c #bfc8c0",
".T c #d99845",
".U c #5c8ac9",
".V c #0d389f",
".W c #121c71",
".X c #f2d78b",
".Y c #494a73",
".Z c #a4beb4",
".0 c #7e726e",
".1 c #4b8acf",
".2 c #f2e89a",
".3 c #e2deaa",
".4 c #f8ecc0",
".5 c #496c9a",
".6 c #edb962",
".7 c #b97c2c",
".8 c #609cc0",
".9 c #df8c1f",
"#. c #e8af55",
"## c #8aafac",
"#a c #eabe80",
"#b c #8c3010",
"#c c #1a5cbc",
"#d c #c25b49",
"#e c #45374c",
"#f c #b4cbd7",
"#g c #dceced",
"#h c #eca014",
"#i c #1e2066",
"#j c #3894dc",
"#k c #bea482",
"#l c #ac4a1c",
"#m c #d07d5d",
"#n c #a56f1b",
"#o c #e89f49",
"#p c #c49a34",
"#q c #214896",
"#r c #1e2c7e",
"#s c #f1c990",
"#t c #f5f094",
"#u c #f4cd6c",
"#v c #373759",
"#w c #f1e16a",
"#x c #cfd7d7",
"#y c #6c7098",
"#z c #644b3c",
"#A c #bfad93",
"#B c #0c1d83",
"#C c #f3c063",
"#D c #c6634b",
"#E c #999fb1",
"#F c #b7752f",
"#G c #3478cd",
"#H c #c4e3ee",
"#I c #df8d32",
"#J c #f1ba3c",
"#K c #89a1b4",
"#L c #efc09f",
"#M c #dab544",
"#N c #d28865",
"#O c #0d2d97",
"#P c #d98032",
"#Q c #d69f66",
"#R c #213987",
"#S c #b13229",
"#T c #c4be7c",
"#U c #368dd7",
"#V c #f3e094",
"#W c #4c5690",
"#X c #b4aab4",
"#Y c #84bce7",
"#Z c #b8d5e4",
"#0 c #f1cf89",
"#1 c #a9d3eb",
"#2 c #c0513f",
"#3 c #322b49",
"#4 c #f0ab39",
"#5 c #f4a94a",
"#6 c #d3bb8d",
"#7 c #577dad",
"#8 c #6fa3bf",
"#9 c #f4b04f",
"a. c #6f2b0c",
"a# c #a01112",
"aa c #370a0a",
"ab c #9c6e64",
"ac c #c28d33",
"ad c #62210c",
"ae c #daa275",
"af c #345789",
"ag c #ac7a1c",
"ah c #a91f19",
"ai c #746e5c",
"aj c #ac4614",
"ak c #2c1e44",
"al c #a9611d",
"am c #3c6694",
"an c #7f6331",
"ao c #74622c",
"ap c #907a34",
"aq c #758fb0",
"ar c #684230",
"as c #7689a1",
"at c #878291",
"au c #b9c0ba",
"av c #4c4040",
"aw c #b09c50",
"ax c #5f5b7c",
"ay c #73b7e7",
"az c #fcfeb4",
"aA c #ab9e93",
"aB c #a07f46",
"aC c #716a7f",
"aD c #9893a0",
"aE c #594647",
"aF c #c46211",
"aG c #917131",
"aH c #cc8014",
"aI c #6a7fa0",
"aJ c #584244",
"aK c #8f5424",
"aL c #e79c32",
"aM c #2f296f",
"aN c #b68c4c",
"aO c #dca644",
"aP c #70acd4",
"aQ c #bf4434",
"aR c #f5e1b1",
"aS c #5c94d2",
"aT c #c97217",
"aU c #be382e",
"aV c #be9a5a",
"aW c #a49060",
"aX c #ceccbe",
"aY c #d79837",
"aZ c #474e8f",
"a0 c #acbbcc",
"a1 c #d8d8c8",
"a2 c #a47e60",
"a3 c #325fa4",
"a4 c #344187",
"a5 c #84aec7",
"a6 c #695d59",
"a7 c #d38b33",
"a8 c #50a3e2",
"a9 c #576a9c",
"b. c #5ca3dc",
"b# c #3472c4",
"ba c #a8a1ae",
"bb c #56110c",
"bc c #898d9f",
"bd c #4895cc",
"be c #8f6527",
"bf c #a9cde3",
"bg c #2c71c9",
"bh c #dcd18e",
"bi c #343f6c",
"bj c #cde2e9",
"bk c #695341",
"bl c #c0b39b",
"bm c #140e3c",
"bn c #dcda8c",
"bo c #d4827c",
"bp c #9c6d34",
"bq c #bfbea4",
"br c #1e4ca9",
"bs c #6c9cd8",
"bt c #5a4c5e",
"bu c #d9b766",
"bv c #717581",
"bw c #c87638",
"bx c #e6a474",
"by c #21316f",
"bz c #d07558",
"bA c #60708c",
"bB c #d98018",
"bC c #e6b47c",
"bD c #c4d2c0",
"bE c #4a608a",
"bF c #443e6c",
"bG c #947050",
"bH c #c77f34",
"bI c #dcae88",
"bJ c #6c8bb4",
"bK c #dcb884",
"bL c #c4beb4",
"bM c #d1d1a9",
"bN c #d09044",
"bO c #0c147b",
"bP c #d7a04b",
"bQ c #113fa3",
"bR c #7c7e74",
"bS c #a45311",
"bT c #397fd4",
"bU c #d68f67",
"bV c #ae2a20",
"bW c #3c3264",
"bX c #daa036",
"bY c #8c7e54",
"bZ c #cc6234",
"b0 c #d8ab64",
"b1 c #8ac3ea",
"b2 c #8c3e14",
"b3 c #2c66b4",
"b4 c #c4ddea",
"b5 c #3c4a74",
"b6 c #fce8a4",
"b7 c #cc5d4a",
/* pixels */
"#Zbj.w#Hbj#Hbj#H.D.D.D#Z#Zb4#Z#Z.D#Z#Zb4b4b4b4#Hbj#Hb4bjbj.wb4bjbj.wbj.w.w.w.w#g.w.w.w#g#g.w#g#g#g#g#g#g.w#g#g.w#g#g#g.w#g#g#g.wbj#g#g#g#g#g.w#g#g#g",
"#H#H.wbj#H.wbjbj#Z#Z#Z#Z#Z.D#Z.D.D#Zb4b4b4bjb4bjb4b4bjb4bjb4bj.w.wbjbj.w.w.w.w.w.w.w.w.w#g.w.w.w#g#g.w#g#g#g#g#g.w#g#g.w#g#g.w#g#g#g.w#g#g#g#g#g#g#g",
"bj.wbjbj#Hbjbj.D#Z#f#Z#Z.D#Z#Zb4b4.Db4.Db4b4b4.D#Hbjb4#Hb4bjbjbj.w#Hbj#H.w#gbj.w.w#g.wbj#g.w.w#g#g.w#g.w#g#g#g#g#g.w#g.w#g.w#g#g.w#g#g#g#g.w.w.w.w#g",
"bj#Hbj#Hbjbjb4b4.D#Z.Dbf#fbf#Z#Z#Z#Z#Z#Zb4b4b4b4b4b4b4bjbjb4b4b4bjbjb4bjbjbjbjbj.wbj.w.w.wbjbj.wbj#g.w.w#g#g.w#g#g#g.w#g.w#gbj#g.w#g.w.w#g#g.w#H#H#1",
".w.w.w.wb4#H#Z#1#fbf#Z#Z#Z#1#Z#Z#Zb4#Zb4#H.Db4.Db4b4b4bjbj.w#Hbj.wbj#Hbjbj.w.wbj.w.w#g#g.wbjbjbj#g.w#g#g.w#g#g#g.w.w#g#g#g#g#g#g#g#g.w#g#g#g.w.D#H.D",
"#g.w.w.w.w.w#fa5#KbJbJbJaqaqbJasasbJaI#7#7#7a9.5a9.5.5bEbE#WafbEbEaI#fbjbj#g.w#g.wbj.w#g#gbj#g#g.w#gbj#g.w#g#g#g#g.w#g.w#g#g#g#g#g.w#g#g#g#g#g#g.w.w",
".w#H#H.D#Hb4.y.U.1.1bdaSaSaSaSbs.1.1.C#cbr.V.V#O#B#BbO.W#B#BbO#B#B.W#Kbjbj#g.w.w#g#g#g#g#g.w#g#gbj#g#gbj#g.w#g#g.w#g#g#g#g#g#g.w#g#g#g#g.w#g#g#g#g.w",
".w#Hb4bj#Z#ZambTbTbT.1.1#GbRaq.Ubsb#.C.e#O.A#BbObObO.Wbp.W#RbObObO.Abcbjbjbj#gbjbj#g#g#g#g#g#g#g#g#g#gbj#g#g.w#g#g#g#g.w.w#xbM#g#g.w#g#g#g#g#g#g#g.w",
".w#Hb4#H.D#Za3#GbTbT.1bT#7.nac.U#G#c.e.V#O#B#BbObObObk.nbt#R#BbObObO.y.0.0abaVbKbqa1a1bD.mblaWbC#.b0.g.m.3aX#6.F#k#k.Taca7aY#9.6b0.F#AaDblblbD.w#g.w",
".wb4bj#Hb4#fb3#G#GbTbTbT.0.X.nat#c.C.e.V#O#ObObObO#B.g.T.7#i#BbObO#B..aabbaF#J.f.f#u.6#o#..vbP.R.f.f.f.B#5#IaL#IbBbB#IaL#4#9.R.f.R.f.R.7.R#0#a.d.w#g",
".wbjbj.wb4#fa3#G#G#Gbg.1#M.J.O.a#c#cbQ#O#BbObObO#BbF#V.t.saMbObO#B#B..aa#b.9#C.R.6#..T.6.B.B#0#u.R.f.f.f.B#4.9aL#4#9#4aL#4.f.R.R.R.R.R.B.f.X.R.d.w.w",
".w#H#H#H#Ha0a3#GbTbg.C#7#C.3.j.G.e.e.e.V#BbObObO#Ban.4bH.saE#B#BbO#B..bb#2#d#db7#d.xbzbw#V#0#u#u.R.R.f.f.B.B.B#4.s#4#4.B.B#ub6b6b6.R.R#u.B#u.R#A.wbj",
"b4#Hbj#Hb4#f#qbT#U#GbgaI#waR.j.G#ObQ.V#O#BbObObObOai.4a7#hbtbO#B#B.W..bbah#a.Q#m#dae#V#m#V#V#0#0#V#w.f.f.f.B#C.B.B#9#J#J#0.4.4.4.4b6#0#9#5#C#uaX.w.w",
".wbj#Hb4.D#Zbrbgbg#G.Cam.RaRaF.n#O.V#O#BbObObObO#B.YaR#P.s.pbO.W#B#B...k.O#QazbzaRbobx.obxbx#abx.X.6bN.v.R#..v.T.t.B#u.6#NbC.4.J.obIaR.6#o#9#ubM#g.w",
".w.w#H.w.D#Z.P.Cbgbgbg#q#MaRaFap.Va9aZbObO#rba#E#rby#V#IbX.Wata1bl.p..ad.j#Qaz.x#2aQ.MbzaQ#NaUbUbV.x#mbzbV#D#m#2bxaQ.o#D#mbz#D#2.o.x.o#s.TaL#o#CbL.w",
".D#H#Hb4b4.D#qb#aq.N#kb5.r#VaTa6bcaRaRaxbO#X#C.JaD#rbha7bp.Y#0.9.v.0.k.c#Paeaz#0#Lbn.J.o#2azbx#0.x#0a#.Q#2#D.Q#2.XbU#2#0ah.Q#Sb6ah#0#d#L#9bwa7.BaVbj",
"#g.w#H#H#H#ZaZb3bhaO#.#p.l#0aHaC#aaFa7aWbO#p.I.q#h.Yaw.I#zaAalarbSan.k#b#Ibx.Q.xbo#dbx.o.xazb7#daQ#d#D.Q#D#D.Qa#bC#Qae#aaUaU#2az#mbK.x#s#o.I#I#.aN#x",
"#H#H#H#Hbj.DbA.5.GaTan.qaJ#MalaNalav#3anbOagak.Hav.7aG.IaJac.p#B#3#z.kaj#Ibuazbz.4#L#N.o#D.QbzaR#2#0#S.Q#D#D#ta##abxb0.XbZb0#2az#SaUbV#sa7aT#I#9aNb4",
"#Hb4b4#Hb4b4bcam#naf.eby.i#n#n#n.WbO.H.H#B#vbO#BbO.iag.nbebk#B#B.AaMbb#laU#saz#maQ.ob7#L#2azb7bC#m.Qb7.Q#m#Daza##ab0#daz.x#dbV.2.M#d#d#.aTaF#I#9.a#x",
"b4.D.Db4.D.D#f#qaf#c#q#WaKaK.q.iaZbObObO.p#BbOa4bcaAaObN#MaDaZ#B#BbmadaQ#N#Nbzbz#m#DaR#s#2.obzbz#2#Q#d#m#d#d#N#S#m#mah.x#Q#dbzaQbU#D.t#o#P.I#h#9aVbj",
".D#Zbjb4b4.Db4.P#c.eb5.F#6bu.6bu.g#vbO.W#paMbO#rbvaWbXbX.Gap.l#B#B..b2#4#o#L.J.J#L#u.R#w.6#5.M.M.6bobx.M#L#9#.#9#o#I#4aL#P#5#C#s.M#L#0.v#I#l.I#oaY#x",
"#x#Zb4.D.w#Hb4as.e.e.A.AaBa7a7aE.WbObO.0.M.ibObO#BaCaH.9#p#B#B#B#Baa.O#.#C#0.J.J.X#u.R.R.R#L#s#C#o#5#9#C.X#u#u#u.f#4.B#9.B.B#9#s#u#u#u.6.TaFbB#4#o.S",
".w#Hbj#Hbj#H#H#Z#r.V#O#O#k#M.naG#BbO.WbubC#h.WbO#BbcanaVan#B#B#O.WadaTbH.T#C#C#u#u#u#Qbu#u#C#C#5aL#I#o#o#9#9#u#9#C#5.B#9#4#J.B.6.6#C.6#9#IaT.I.9#Ibl",
".wbj#H.w.w#H.wbj#7.V#Oby.lav#3#3bO.HaJ#wbC#h#e.H#B#v#i.l.AbO#O.A..ada.ada.bS.O#Fbpb0bG.7bN#F#F.OalalalbwbN#I#o.B#uaLaKaT#I.T.v#9#9.B#5#5bP#P.IaLaL#A",
"b4.w.w.w#H#H#H.D#X.A#O#BbObObObO#B.H#z.X#a#hbW.HbObO.A.A.A#ObQ#r#fb4bDbDaXbl#AaAbl#x.wbj.ma1bj#gbja1.m#Xbq.m#k#kbK.Fblbla2aK.T#.#5#9#4.va7#laT.9aL.3",
".w.w.w.w#H#H.D#H.w.Y#O#B#BbObO.HbO.H#e.RbC#h.W.HbO#B#B#B#O.V#casb4bjb4bj#g.wbjbj.w.w.w.w.w#gbj#g#g.wbj.w.w.wbj.wbjbj#x.w.wbDau.m#6#QacbNbHbH.T.T.N#g",
"#H.w.w#H#H.wb4#H#H#f.p#B#B.H#B#ybaaM#i#Jbuac.Wa9bLaA.K#BbQ.e#q.D#Hb4.w.wbj.wbj.w#gbj#g#g.wbjbjbjbjbjbj#gbjbjbj#Hbjbjbjbjbjbj.w#gbjau.S.Sbq.S.S#x.w.w",
"#H#H.w#H#H#H.D.D#Hb4bcbObObO#r#sbP#6.p#p#.aBa4#0#4.fba.AbQbQ#Ebjbj.w.w#g.w.w.w#gbjbj.w#g#H.D.D#Z.D.Db4#Hbjbjbj.w.w#Hbjbjbj#gbj#g.w.w#gbjbj.wbj#Hbj.w",
".w.w#H.w#H.w#H#H.Dbjb4bF#BbO#vbBaK#Fbtap.vbta2agaT.9aA.V.ebEb4bj.w.w.w#g.w#g.w.w.w.w.wb4#1#Y.za8#Yb1.b#Z#1.D.D.D#Hb4bjbjbjb4.w.w.w.w.w.wbj.wbjbj.w.w",
".w#H.w#H.w#H#H#H#H#H#H.S.WbO#va6#B#i#nav.G.lbe.p#i#nai.e#R#f.w.w.w.w.w.w#g.w.w.D.bbf#1.baya8.##U.##ja8ayb1b1b1.D.b#Y.Dbj#1.b.w.w#gbj.wbjbjbj.w.w.w.w",
"#H.w.w.w#H.w.w.D#H.w.wb4at#B#B#B#BbO#ear.qbG#3#O.A#R#q#q#Kbj#Hbj.w.w.w#g.w#gbjb1a8#j.Lb..L#j.#.#.#.#.#.##j#j.L.z.zb1#Y.b#Yb1#Y#Z#Zb4.w.w.wbj.w.w.w.w",
"#g.w.w.w.w#H.w#H#H#H#H.Db4aCbO#BbO.Pba.F#abK.FbE.ebQ#qbAbjb4.w.w.w#g.w.w.w.w.Da8#j.#.##j#j.#.8.E.8.1.##j.#.##j.L.bbf.b#Z#Zbjbjb4.D#H.Db4.D#Hbj.wbj.w",
".w.w.w#H.w#H#H.w#H#H#H.D#Hb4ax#B#BbibYac.n.naob5.e.eb5bj.w.w.wbj.w#g.w.w.w.w.b.#.##UaS.#.##8.u#w#w.ubh.Z###8.##j#Y#1#1.D.w.w.w.wbj.Db1b1b1.zb1#1#1.b",
".w#H.w#H.w#H.w#H#H.w.w.w#H#H#x.y#B#B#R.g#J#4bi.e.e#R#f.wbjbj.w.w.w.w#g.w#H#Hay#j.##Tbn##.E.u#w.h#w.h.h.h.hbnaP.#a8b1#1.D.w.w.w.w#1#Y.z#j#j#j.La8a8a8",
".w.w.w.w.w#H.w.w.w.w.w#H.w#H#HbjaC#B#Raw#M.aa6.ebQ#Ebj#H.w#H#H.w#g.w.w.w.w#Hay.L.#.E#w.u.h#w.h#w#w.h#w.h.h.h.Z.#.Lb1#1.b#1.bbf.bb1a8.#.#.#.#.#.#.L#j",
"#H.w.w.w.w.w#H#H#H.w#H#H.w.wb4bjb4#y.A#qai.V#RbraI#Hbj.w#Hbj.w#H.w.w#g.w#H.wb1#j.####w#w#w#w#w#w.h.h#w.h.h.h.2.8.#a8aya8a8a8a8.za8#j.#b..SbM#8#U#jbd",
".D.w.w.w.w.w.w.w.w#H#H#H.w#H#H#H.D.Dbcby.A#O#qaI#H.w#H.w.w#H.w.w.w#g.w.w.w.w#1a8.###.u.R#w#w.h#w.h.h.h.h.h#w.hbM#U.#.#.##j#j.##U.#.##jbM.2#t.2bM.3#t",
".w#H.w.w.w.w.w#H#H#H#H#H.w#H.w#H#Hbjb4a0bi#ras#H.w#H.w#H.w.w.w#H.w.w.w.w.w#H#1.L.##U.8.E#w#w.h.h.h.h.h.h.h.h.2.h.SaPbdbdb.a8.8aPa5.8.Z.2#V#t.h#t#t#t",
".w.w.w.w.w.w.w.w.w#H.w#H.w.D.w#H#Hb4b4.D#Zba.wb4#H.w.w#H.w#H.w#H.w.w.w#H.w#H.Day.#.#.#.#.E#w.h#w.h.h.h#t.h.h.h#t.h#t.3.3.2.2.2#t.4#t#t.2.h#t#t#t#t#t",
".w#H.w.w.w.w#H#H.w#H#H.w.w#H.w#H#H.D.w.D#H#H#H.w.w#H.w.w.w#H.w#H.w.w#H#H.w.w#H#1ay#j#j.##Ubn.h.h.h#t.h.h#t#t#t#t#t#t#t#t#t#t#t#t#t#t#t#t#t#t#t#t#t#t",
"#H.w.w#H.w.w#H#H#H.w#H.w#H#H#H#H.w#H#H.w#H.w.w#H#H.w#H.w.w.w.w.w.w.wb1b1.w.wb1#H.Db1ay.L.###.h.h.h#t#t.h#t#t#t#t#t#t#t#t#t#t.2.Q#t#t#t#t#t#t#t.h#t#t"
};
