/* XPM */
static char *Germany[] = {
/* width height num_colors chars_per_pixel */
"    80    41      251            2",
/* colors */
".. c #1d0a10",
".# c #aa851c",
".a c #ecc42a",
".b c #d08818",
".c c #d1c28e",
".d c #cb2b1d",
".e c #cfa41a",
".f c #ece297",
".g c #d4a27c",
".h c #444234",
".i c #ecc48c",
".j c #945624",
".k c #d8b21c",
".l c #c1a534",
".m c #cc5f4f",
".n c #ebe5be",
".o c #d0856b",
".p c #f6d73f",
".q c #bf8419",
".r c #f2d48e",
".s c #33271f",
".t c #96701c",
".u c #7c5f24",
".v c #d2b580",
".w c #d4a44a",
".x c #e9b31b",
".y c #e4c654",
".z c #f0d9b0",
".A c #d8d29c",
".B c #bc8264",
".C c #f6f2c8",
".D c #e4b66c",
".E c #fc8a74",
".F c #784418",
".G c #d49268",
".H c #b47818",
".I c #e8b456",
".J c #291816",
".K c #f3eeb4",
".L c #f3dc90",
".M c #503217",
".N c #e6ce76",
".O c #ce9816",
".P c #bf951a",
".Q c #b6a47c",
".R c #e0c48d",
".S c #fc3e24",
".T c #e5ad4f",
".U c #b94144",
".V c #e5a315",
".W c #f4e397",
".X c #cc7464",
".Y c #947250",
".Z c #f4e5c1",
".0 c #eab79a",
".1 c #b45634",
".2 c #98845c",
".3 c #f3d865",
".4 c #947d29",
".5 c #d2ab5c",
".6 c #eec368",
".7 c #6f531f",
".8 c #896f21",
".9 c #df956c",
"#. c #3f1f14",
"## c #ce9740",
"#a c #d18b72",
"#b c #b98537",
"#c c #ccb28c",
"#d c #f8f3d9",
"#e c #62451a",
"#f c #d7d2ac",
"#g c #291e18",
"#h c #c2b58a",
"#i c #eccba9",
"#j c #eabb24",
"#k c #ebbb61",
"#l c #fcce20",
"#m c #e6bd73",
"#n c #dfcca9",
"#o c #f2ca75",
"#p c #d8a339",
"#q c #eecd8f",
"#r c #f0d59f",
"#s c #44381c",
"#t c #f1deb4",
"#u c #fcda96",
"#v c #513c22",
"#w c #b74d4d",
"#x c #f5e4ae",
"#y c #f4de64",
"#z c #dea57f",
"#A c #b8945a",
"#B c #f4c51e",
"#C c #ccb644",
"#D c #846640",
"#E c #f4edc1",
"#F c #644f1c",
"#G c #c36f59",
"#H c #f3dca0",
"#I c #cc7a60",
"#J c #c36558",
"#K c #8a541c",
"#L c #dc8b6b",
"#M c #e1dbaa",
"#N c #a87118",
"#O c #dca449",
"#P c #c0ab7d",
"#Q c #ba8b40",
"#R c #f4be74",
"#S c #dca28c",
"#T c #b99d69",
"#U c #221012",
"#V c #d2cba2",
"#W c #fc6234",
"#X c #3f2a19",
"#Y c #876519",
"#Z c #d2937c",
"#0 c #f4b44c",
"#1 c #e3cd8e",
"#2 c #ac924c",
"#3 c #edc578",
"#4 c #dc9c38",
"#5 c #fcfae4",
"#6 c #e4bb8a",
"#7 c #f5eab3",
"#8 c #daab18",
"#9 c #ccba80",
"a. c #b63740",
"a# c #ac922c",
"aa c #9c6919",
"ab c #a77e41",
"ac c #cc4e34",
"ad c #cc8c44",
"ae c #cc341c",
"af c #cc6d5f",
"ag c #705844",
"ah c #a58b5c",
"ai c #a77c1c",
"aj c #ecd24c",
"ak c #5f3d15",
"al c #d0ba54",
"am c #a08438",
"an c #7c7644",
"ao c #e4a83a",
"ap c #c4beac",
"aq c #de9a15",
"ar c #c49541",
"as c #5c4632",
"at c #d2bc90",
"au c #c47e20",
"av c #c4574f",
"aw c #eceabd",
"ax c #e4de9c",
"ay c #df9d7b",
"az c #b49e54",
"aA c #e7c748",
"aB c #ece6b0",
"aC c #e2c474",
"aD c #a9956c",
"aE c #986731",
"aF c #ba8d1c",
"aG c #714c17",
"aH c #bc8a4c",
"aI c #f4b618",
"aJ c #f4d068",
"aK c #dcb44c",
"aL c #dcbe44",
"aM c #c43e2c",
"aN c #7c5519",
"aO c #c4a35c",
"aP c #d08f19",
"aQ c #d09e58",
"aR c #e0ab78",
"aS c #54442a",
"aT c #d8b83c",
"aU c #bcaa4c",
"aV c #b67b32",
"aW c #e4bab4",
"aX c #bc5954",
"aY c #a67431",
"aZ c #896631",
"a0 c #d1ae71",
"a1 c #78682c",
"a2 c #daae32",
"a3 c #e1ad99",
"a4 c #d49c7a",
"a5 c #dcb571",
"a6 c #c4a674",
"a7 c #dcac58",
"a8 c #dcb498",
"a9 c #f4be1e",
"b. c #dcbc78",
"b# c #dc6a4c",
"ba c #fcf2b2",
"bb c #8c733c",
"bc c #343224",
"bd c #ebad18",
"be c #443d2e",
"bf c #fc6e44",
"bg c #d0c3a0",
"bh c #f4da50",
"bi c #d1a45f",
"bj c #e4b32f",
"bk c #e6b387",
"bl c #341916",
"bm c #f3d878",
"bn c #e4d4b0",
"bo c #342018",
"bp c #7c625c",
"bq c #f4eed5",
"br c #c47068",
"bs c #d07b6d",
"bt c #c48b36",
"bu c #2c1211",
"bv c #c4524c",
"bw c #ac7c34",
"bx c #ac8444",
"by c #dcbe8c",
"bz c #c49b51",
"bA c #c09a1e",
"bB c #d49e41",
"bC c #644a1c",
"bD c #ba5252",
"bE c #f5ca21",
"bF c #c46a59",
"bG c #b4aa60",
"bH c #e4d294",
"bI c #dca317",
"bJ c #c48639",
"bK c #f4be5c",
"bL c #c49454",
"bM c #f4e079",
"bN c #645234",
"bO c #7c5a44",
"bP c #eceed8",
"bQ c #bc8e6c",
"bR c #f4cf79",
"bS c #dcb364",
"bT c #dcbd64",
"bU c #cc6657",
"bV c #cc9239",
"bW c #9c5e14",
"bX c #dcba2c",
"bY c #9c7614",
"bZ c #bc7e1c",
"b0 c #e9be96",
"b1 c #745a24",
"b2 c #c4ba8c",
"b3 c #875a19",
"b4 c #a4761c",
/* pixels */
".Z.C.C.C.C.C.C.C.C.C.C.C.C#E#Eaw#E.K.K.K#7#E.Kaeac#7#E.K#E.K.KaB.K#7.C#E#Eaw#E.C#7.Cbqbqbqbq#d#d#d.C.C#d.C#d.C#d.Cbq#E.Cbq.C#d.C#d#d#d.C#d#d#d#d#d#d#d#5#d#d#d#d",
".C.C.Cba.C.C.C.C.C#E.Cba.C#E.C.K.K.Kawaw#7.K#taeb##7aw.K#E#7#7aBaw.K.C#E#E#Eaw#7bq#E#d.C.C#d#d#d.C#d.C#d.C#d#d.C.Cbq#E#E#E#d.C#d.C#d.C#d#d.C#d.C#d#dbq#d#d#d#d#d",
"#5ba.C.C.C.C.C.C.C.C.C.C#E#7#E#Eaw.KaB#7.Kaw.i.d.9aw#7#E.K#7aB#7#7#E.C#E.C#Eaw#E#E#E.C#d#dbP.C#d.C.C#d#d#d.C#d.C#d.C.C#E.Cbq.C#d#d.Cbq.C#d#d.C#d#d#d#d#d#dbP#dbP",
"ba.C.C.C.C.C.C.C.C.C.C#E.C#E.K#E#7#E.K.Kaw.K#L.d.0#7#7.Kaw.KaBaB.Kaw.C#Eaw#7.C#E#Eaw.C#d#d.C#d.C.C#d#d.C#d#d#d#d.C#d#d.Cbq.Cbqbq.C#d#Ebq#d.C#d#d#d#d#dbq#d#dbPbq",
".C#5.C.C.C.C.C#M.n#M#M#M#M.Ab2b2#h#PbG.Qa6a6bQ.B#P#Vaw#7#E#E.KaB#7#E#E#E#E#E#E#Eawbq.C#d#d.CbPbP.CbP.C#d.C#d.C.C#d#d#d.Cbq#d#E.C.Cbqbq#E#d#d.C#d#d#d#d#d#d#d#d#d",
"ba#5.C#5.C.C#f.yaz.NbH.L#1.NbH.Laj.3ajbEbE#B#l#B#ja2.n#E.C.KawawaBaw#E.Kaw#Eawbq#7#E.C#d#d#d.C.C.C.C#d.C.C.C#d.C#d.C#d#d.Cbq.Cbqbq.C.C.Cbq.C#d#d#d#d#d#dbq#dbq#d",
".C.Cba.C.C.C.n#y.2an#C#CbmaxbMaA.4.lbXbE#B#BbE#jaN#j.n#E#Eaw.K#7.K#7#E#E.Kaw.C#Eaw.C#d#d.C.C#d.C#d#d.Cbq#E#E.C.C#d#d.C.C#d.Cbq#E.C.Cbqbq.Cbqbq.C#d#d#dbq#d#d#d#d",
".C.C.C.C.C.CaB.3aCbNbc.h.8a#aAbC#g#g#8bE#B.e.8.M.#bjaB#E.C#E#7aw#E#E.C#E#EaBbqbqaw.nbP#d#dbP#d#Ebq.C#E#E#Ebqbq.C.C#d#d.Cbq#d.C.Cbq.Cbqbq.C#d.C#d#d#d#d#dbq#5#d#d",
".C.Kba.C#EbaaB.aa1bGaS#gbc.haUaz#X#g.k.e#F#X#gaN.#bjaBaw#Eaw#V#Vbg#M.n#E#E#E.naDbxa0#1#t#Vbg.c#9#T#Tatawbq#E.C.Cbq#d#d.C.C.C#Ebq.Cbq.C.Cbq#Ebq#d#d#d#dbq#d#d#d#d",
"#E.K.C#E#E.C#M.3aS#X#g#g#g.sbGbb.J#v.kaG.Jbube.7.7bd.n#Eba.2.w#1.r#rbHaC#f#Eahar#m#r#t.Z.Z#r#q#q.Ia7bibi#h#nap#h#n.zbn#nbgata8.Qbgbn.Cbqbqbqbq#d#d#d#d#d#d#d#d#5",
"#7.C.K.K.C.CaBbm#1aD.s.s.Jagaxal#Uboa9aa#g.J.J#X#8#j.n#7.naE.5.L.W.L.L.r#A#D#bbS#1#r#Ebqbqbq#t#q#o.D.IbzaVaE#bbLbS#maQ###ObBbB##bB#QaO#1.Z.C#d#dbq#d#dbPbPbP#d#d",
"bf#H.C#E.K#EaxaLasaS.s#g.s.N.fam.Jbo.eaIak#Ubo.#bA#j.naw#MbY#m#x#xbM.3.r.5aEbB#OaC.Zbqbq#d.ZaB.r#1#3aLarbJbia5aC#m#o.NbR.N.6.D#O#Obt#bbtara6a0a6.v.va6#TaQbi.n#d",
".E.Zba#E.K#Eax.Lbp#gbo#g#g.#.4.l..aS.8.k#s..#Ubl#e#j.n#7bgaY#qaB#x.WbMbm.Dbw##a7#q.Z#d.C.Z#x#t.L#q#3a7##.wbS#m#3.N.3bm#ubM#rbR#ka7bBbVao#p#4#pbB.w#Oa7#k#3#3.z#d",
"#x#E.K#E.K.C.faC#M.Qbe.J#U.J#g#s#U.J.Jbo.....Jb3.O#j.n#7.Qbw#q.Z#x.W#ubR.wbwbJbF.B#n#Z#t#t#H#x#x#r#q.I.T.D#m.DbR.3#u.L#H.W#x#r#q.6.TbV.T.Ia7.IaC#qbRbR.L.r#rbn#d",
"#E#E.C.K.K.K.fan#v.s#g.J.J#U#g.J#U..#U#U....bu.8a9#j.Zawah#Q#r#x#7.LbMaJ##.1#Lay#abs.o#n.z#H.f#E#H#H#3.I#3.r#o.L#ubm.L#x.Z#x#H.r.r#3#pa7aL#k#R#H#H#H.f.L.L#r.z#d",
"#W#x.Kaw.K.Kax.R#D.8.P.s#U.J#g#g#U..#U#U..ak.Mbl#va2#Eawbb#Q.z#7.W.L.3aJada3#n.o#S.0#Z.Z#x#t#t#7#x.L.r#mbR.L.r.W.L.L#H#x.Z#x#H#H#q#o.I.I.I.6.r.L#H#H.L#H#q#1.zbq",
".S.z.K#E#E.Kax.faBbnaS#v#v#U#U#U....#U..#U.JaiaGaGbj.ZawaZbz.n.Z#u.Wbm.6#Iba#L.gbr.X#Zbqa3.X#a#a#G#G#GbU#J.X#I.X#I#q#I#I.X#Z#I#J.X#J#JafavbF#k.r#H#H.L.r#3#m#r#d",
".z#7.K#E.K#7aB.W.cbN.M#8.M#vbC......bo.J.M#..M.ea9a2#7.AaZa5.Z.Z.W.rbm.6.9ba#J.Xb0#u#abn#aa4.0#Jba.i.R.i#q#q#qbk#x.U#qbF#7.U#u.R#qaybk.R.U.G.6.r#r.z.L#qb.#3bn#d",
"#E.C.K#E.K#Eax.N#v#vaT.P#eaAak......ak.q.J#Nbl.M.Pbj.n#PaY#1.Z#u.L.3aJa7aybaaXbkbF.C#Z#Z#u#w#raXba#JbF#Saybr#ta.ba#w#ra.ba#wb0#a#a#6bF.Wav.oaj.N#H.z#r#o#m#m#qbq",
".K#E#E.K.Kaw#HbMaTaj.a#D#1am#U......#UbY#NaG.qaGaP#paw.2bJbn.Z#x.raJ.6#0ayba#J#ibF#ub0bDba#Sa4#wba.oaW#za4af.fa.baa..mayba#wb0#a#L.R.Uba#z#LaJ#q.z.n#n#q#k#k#qbq",
"ba.C.K.C.K.Cax.W.3.pbmaxaD#g#U#X..aG.J.J.#aPaqbd.x#paBaZaQ.z#E#H.raJ.I.I.oba.GaRbF#x#6bD#7af#Ja.ba#abn#zaybU.za.babD#7.UbabDb0#a.o.i.ob0aRb0.r.z.z#t#i#obKbK#m#d",
"ba.K.C#E.K.Kaw.W.3bM.f.5.MbobCaF..#YbY.Jbu#Y.V.xbd#p#haEby.Z.Z#u.L#k.T#Ra7aR#tavbvba#aa8bk#q#ZbDba.X#S.0bkbs#xbvba.Xba#6#7.o#q#Say.z.o#a#a.z.z.z#t.z#m.ia7.T.Ibq",
"#E#E.C.K#7#EaB.L#ybMbMaAaN#v.P.J...JaF.F.J.HbIbd.V#pab#A.z.Z.Z#H.r.6#k#o#qay.oa4a4.XaW#tbs.obsbr.Xbs.g.Xbraf.X#J.Xafbraf.X#J.XbF#JaX#wbU#Z#t#t#r#r#i#6#m.wao#m#d",
"#E.K.C#Eaw#Eaw.3bhbh.p.8.kaIb3#e#U#XakaiaG.7bI.V.VaV#Kbi#q.z#x.L#u.r#obR#u#x#ta3aW.Z.Z.ZbP.z.Z.n.n.Z.Z.Z.Z.Z.z#t#H#r#u#r.z#r#q#obm.9#x#aa3.z.z#r#r.i#ma7ao#o#3bq",
"#E#7#E.C.C.K#E#ya2a1bN#vbAbEbA.ebu.#.Pbd.eak#X.uaPb3aEa5#R#R.r#ubR#o#o.r#u#H.Z#x.Z.Zbq.n.Z.Z.n.z#tbq.Zbqbq.Z.Z.Z#t#u#r#u.r.i#kaJbR#m.Xbs#u#t#r#u#q#maR#O#b.T#obq",
"#E#E#7.K#Eba#E.f.laibe.ub1#BbY.M.J#X#F.P.VakblaNbZ.FaYar.I.6.6.6#RbR.r#u.r#u.Z#H.Z.Zbq.Z.Z#t.n.z.zbq.n.n#t.Z.z.Z#H#u#u#q#k#O.I#oaJbm.r#r#H#t#u.i#R#m##bVau#p#q#d",
".Caw#E.C.C.C.KaBaAaZb1.a.x#F.J.J..#Ubu#X.O#N.M.Mauak#K.j#NaVbzaQbz.D#obR.r#r#H#t#r#t.Z#t.n#ibk#n.z.z#t.Z#t.z.z#u#rbR#o#R#ObJ#O#kaJ.3bm#u#x.zb0#kaRaQaraV#4#0#r#d",
".C#E.K.C#7.K.K#tbTbAbY.paF.u#2aS.J#g.qb3#NaPbW#KaabObOag.Y#hawawa0ambz#mbR.r#u#u#H#u#r.z#q.TarbL.R.R#i#n.i#q#q#q#ubR#0#0bBbJbV#0.6bKbR#u.r#ma7aQbB.w##ao#p#m.R#d",
"aB#E#Eaw.Caw.Kax.W.aa#bE.e#B.eaS#U.J.#aqaP.Vau.b#A.Z.n.Z.Z.Z#E.K#7#EaBbya6#T#9#1.r.r.r#o.T##aYaHbBab.Q#P.Q#h#h#c.Qa0bzaHaEbtbJbBbBbT#q#r.RaR.wa5.Db.#3#m#m#mbgbq",
".K#E.K#E#Eaw#Eaw.fbM.pbE#B.tbo.Jbu.Jbu#e.VaPaqauataw.Z.Z#7#7#7#E.Z#E#E#E#7.Zbnat#Tahah#2bx#AahaD.Q#h#V.Z.Z#E#E#E.Cbq.z#n#c.Rat#M.n#Ebqbq#d.Cbq.Cbqbq#dbqbn#nbq#d",
"#E.K#E.C.K#Eaw.C.f.W.pbEai#X.M.t.J#e#.blaGbIaq.H#x.Zawaw#7aw#E.n#x#E.Z#E#E#E#7aw#E.n.n#t.nbP#Eaw#7aw#7#Eawbq#Ebq.Cbq#dbq.C#Ebq#dbq#d#d#d#dbq#d#d#d#d#d#d#d#d#d#d",
".C#E.K#Eaw#E.KaB.n.L.3aF.8ai.eaa.JaGaPaab4#N.b.vaw.zaB#7#7.n#7#E#E#7#E#E#E#E#Eaw#E#E#Eaw#E.Z#E#Eaw#7aw#E#E#E#Ebq.C.C#d.Cbqbq.Cbq#d.C#d.C#d#d#d#d#d#d#d#d#d#d#d#d",
".C.C#Eaw.K.K.Kawaw#1.NaA.x.xbd.q.Jb3.V.V.b.qbL.n#x.faB#x#E#7#E#Eawaw#7#E.n#E#E#E#E.n#E#E#Eawaw#E.naw#E#E#Ebq.C.C#Ebq.Cbq.C.C.Zbq#dbq#dbq#dbq#d#d#d#d#d#d#d#d#5#d",
".K#Eaw.CaBawaw.K#EawbT#Ba9aIaIbd.M.e.V.V.baHaB#7.n#x#t#E.n#E#E#7#7#7.n#E#E#E#E#E#E#Ebq.Z#E#E#E#E#E#7bq.n#E.C.Cbq.C.C#d#dbq#dbqbq.C#d#d#dbq#d#dbq#d#d#d#5#d#d#5#d",
"aw#E#E.K.K.Kaw#E.KawaB#1aK.xa9aIaqbd.VbJ.vaB.Z#E.ZaB#xaw#E#Eaw.naw#E#7#E#E#E#E#E#E#Eawaw#Eaw.Z#E#E#E#Eawbq#E#Ebq.C#d.C.Cbq.Cbq#d#d#d#d#d#dbq#d#d#d#d#d#d#d#d#d#d",
"#E#E.C#Eawawaw#7aw#7aBaBaB.R##aP#4a0b.aB#x.n#E#7#E#7#E#E#E.n#7#7aw#7#E#E#E.n#E#Eaw#E#E#E#E#E#Eaw#7bqawbq.Z#E#E.C#E#dbqbq.Cbq#d.C#dbq#d#d#d#dbq#d#d#d#d#d#d#d#d#d",
"#Eaw#E#Eaw#7aw.K.KaB.K#7aBawac.day.ZawaBaB.n#7bqaw#Eaw#7.n#E#E#7#E#7#E#E.Z#E#E#Ebq#E#Ebq.n#E#Ebq#E#EbqaB#7#E#dbq.Cbq.Cbq#dbq#d#d.C#d#d#d#d#d#5#d#5#d#d#d#d#d#5#d",
"aw#E.C#E.KaBaBaw#E.KaBaBaB.r.d.dbnaw#x.n#7awaw#7#E#E#7aw#7#7aw#E#7#E.n#E#E#E#E#E#Eaw#E#E#Ebq#E#E#E#Eaw#E#E.Cbq#E.C#d#d.C.C.C#d.C#d#d#d#d#d#d#d#d#d#d#d#d#d#d#d#d",
"aw#Eaw.KawaB.K.Kaw#7aBaB#7#z.d.m#x#Eaw#7aw#7#Eaw#E#E#E.Zaw#7#E#7#7aw#7#E#E#E#E#E#E#E.Z#E#E#E#E#E#E#E#E#Ebq#Ebq#dbq#d.Cbqbqbq#d#dbq#d#d#d#d#d#5#5#d#d#5bq#d#d#d#5",
"aw.K#EawawaB.Kaw.K#7.fay.G#L.d.m#7#7aw#7#Eaw#7.n#E#E#E#7aw#E#7.n#7.n#E#E#7aw.Zbq.n#Ebq#Ebq.n#E#E#E#E#E#Ebq.C.C.C#d.Cbq.C.C#d.C.C#d#d#d#d#d#d#d#dbP#5#d#d#dbq#5#d",
"aw#Eaw.CaBaBaB.KaBaRacaM.o#L.d.d#LaB#7.naw#Eaw#E#E.n#Eaw#E#E#7#E#7#E#7#E.Z#E#E#E#7bq#E#Ebq#7#E#E#E#E#Ebq.C#E.C.C.Cbq.Cbqbq.Cbqbq.C#d#d#d#d#dbqbq#5bq#dbP#5#d#5#d"
};
