/* XPM */
static char *Italy[] = {
/* width height num_colors chars_per_pixel */
"    74    40      256            2",
/* colors */
".. c #0b0706",
".# c #1f8523",
".a c #938823",
".b c #910b14",
".c c #9ec625",
".d c #8f8994",
".e c #104812",
".f c #8e4916",
".g c #95c6b3",
".h c #514819",
".i c #71b536",
".j c #cc8825",
".k c #1687b1",
".l c #d3c899",
".m c #ce472d",
".n c #ce898e",
".o c #4d5786",
".p c #cb111c",
".q c #115c9c",
".r c #93a62a",
".s c #cfa82c",
".t c #d6e6a6",
".u c #926f17",
".v c #4f0609",
".w c #4f681c",
".x c #518da8",
".y c #4f8a26",
".z c #146719",
".A c #8ea9b0",
".B c #91281a",
".C c #539e2d",
".D c #d4c632",
".E c #55a1a7",
".F c #b6e5b1",
".G c #8e6971",
".H c #92895b",
".I c #d7e56b",
".J c #cfa95f",
".K c #8dabcd",
".L c #c9cadb",
".M c #72681d",
".N c #ca6922",
".O c #502811",
".P c #95c7da",
".Q c #cc8a58",
".R c #cfe7ec",
".S c #0e280d",
".T c #93a864",
".U c #704814",
".V c #156954",
".W c #d4c767",
".X c #af7218",
".Y c #cd2725",
".Z c #508c5d",
".0 c #914a5e",
".1 c #11484f",
".2 c #cfaa90",
".3 c #53a2d6",
".4 c #943655",
".5 c #ae0d19",
".6 c #ad491f",
".7 c #52b5b3",
".8 c #d06866",
".9 c #6f90a2",
"#. c #ccaaca",
"## c #b02725",
"#a c #6f280f",
"#b c #ecc998",
"#c c #afa99d",
"#d c #eaa95e",
"#e c #153759",
"#f c #b08958",
"#g c #b18824",
"#h c #afc9d9",
"#i c #edc866",
"#j c #2d4817",
"#k c #b4a861",
"#l c #2e681a",
"#m c #ebe8e2",
"#n c #2e2814",
"#o c #53a061",
"#p c #51685b",
"#q c #b1958f",
"#r c #f0895d",
"#s c #716955",
"#t c #77b6ba",
"#u c #eaa92e",
"#v c #ecaa91",
"#w c #aaabcf",
"#x c #379fa6",
"#y c #ebcbce",
"#z c #504951",
"#A c #e98a26",
"#B c #cd2748",
"#C c #79ccc4",
"#D c #6e494f",
"#E c #907244",
"#F c #1373a8",
"#G c #af7543",
"#H c #708c5f",
"#I c #b0c7b0",
"#J c #f2e6a5",
"#K c #f36838",
"#L c #708b24",
"#M c #e80b22",
"#N c #72060c",
"#O c #18855b",
"#P c #cc4859",
"#Q c #50748e",
"#R c #2f76aa",
"#S c #b3a72c",
"#T c #73a7d0",
"#U c #75b9da",
"#V c #306956",
"#W c #b01339",
"#X c #1789ce",
"#Y c #2f0607",
"#Z c #ec2828",
"#0 c #75a5af",
"#1 c #8f5819",
"#2 c #71a262",
"#3 c #6f748d",
"#4 c #4f90d0",
"#5 c #941038",
"#6 c #4f3746",
"#7 c #edc732",
"#8 c #cb143c",
"#9 c #ad591a",
"a. c #8c9bcd",
"a# c #94c66a",
"aa c #99e5ed",
"ab c #5eb56a",
"ac c #f28788",
"ad c #efe544",
"ae c #b6c668",
"af c #b06870",
"ag c #34885b",
"ah c #af485f",
"ai c #f16860",
"aj c #f04930",
"ak c #324753",
"al c #af2951",
"am c #eabac8",
"an c #323656",
"ao c #e93348",
"ap c #ef5354",
"aq c #b6e5ec",
"ar c #359fd9",
"as c #6f5886",
"at c #6e3750",
"au c #325b95",
"av c #399827",
"aw c #bcda31",
"ax c #4a79c1",
"ay c #4fb6e4",
"az c #2f79cb",
"aA c #328aae",
"aB c #70a12b",
"aC c #328dcf",
"aD c #7cc978",
"aE c #d49ecc",
"aF c #6c7bc1",
"aG c #f2e670",
"aH c #6c92cd",
"aI c #ab9ac1",
"aJ c #b3da75",
"aK c #1377c5",
"aL c #907976",
"aM c #71170f",
"aN c #358725",
"aO c #b7c72e",
"aP c #37995d",
"aQ c #cb7926",
"aR c #905960",
"aS c #cc7a67",
"aT c #ef7934",
"aU c #eb1926",
"aV c #f37964",
"aW c #78cde8",
"aX c #cc5926",
"aY c #4f180e",
"aZ c #8f3817",
"a0 c #0f380f",
"a1 c #af3822",
"a2 c #2e3818",
"a3 c #2e180f",
"a4 c #ae7972",
"a5 c #af5965",
"a6 c #f25837",
"a7 c #0d180a",
"a8 c #939726",
"a9 c #8d9aa4",
"b. c #115815",
"b# c #97d4b0",
"ba c #50581b",
"bb c #ce9829",
"bc c #d5d7a1",
"bd c #92b52a",
"be c #d1b72f",
"bf c #4e781f",
"bg c #16761b",
"bh c #91b7b3",
"bi c #d5d432",
"bj c #939860",
"bk c #d1b864",
"bl c #91b9d2",
"bm c #ccd9e3",
"bn c #717820",
"bo c #98d6e4",
"bp c #ce995c",
"bq c #d2f4f3",
"br c #92b769",
"bs c #725818",
"bt c #167757",
"bu c #d6d66a",
"bv c #cf3826",
"bw c #135a54",
"bx c #d0b994",
"by c #c9bbd4",
"bz c #6f3912",
"bA c #eed89e",
"bB c #aeb9a9",
"bC c #ebb963",
"bD c #b1995c",
"bE c #b29728",
"bF c #b3d7e3",
"bG c #efd76b",
"bH c #2d5818",
"bI c #b5b765",
"bJ c #307720",
"bK c #f2f8dc",
"bL c #ed995e",
"bM c #ecb82f",
"bN c #ecba93",
"bO c #abbad2",
"bP c #ebdad8",
"bQ c #e99929",
"bR c #cc374f",
"bS c #b3d6b2",
"bT c #fafbaa",
"bU c #d0585c",
"bV c #b5b62e",
"bW c #327858",
"bX c #ef372b",
"bY c #efd633",
"bZ c #ee9a90",
"b0 c #315856",
"b1 c #ae3853",
"b2 c #b8f4f3",
"b3 c #75b670",
"b4 c #ce9a8e",
"b5 c #513814",
"b6 c #4f795b",
"b7 c #71785a",
"b8 c #505855",
"b9 c #705952",
/* pixels */
"azaz#4.P#hbFbFbFbF#h#hbF#h#h.Kbl#hbF#h.P.P#hbF#h#hbF#h#hbO.P#hbF#h#h#h#hbFbFbF#hbl#T#h#hbl.3#Tbl#TazaKaCaC#4aCaAaC#Tbl.P#h#hbF#hbF.3.3#hbF#T#TbobF.3",
"#XaA#T.PbFbF#h#hbF#h#h#h#hbFbl#T#h#h#h#T#T#h#h#hbF#h#h#h#h#h#h#h#h#h#hbF#h#h#h.P#U#T.P.P#T.3#T#U.3#4aC#4aAaCaAaz#4#T.P#h#hbF#h#h#U#T#T#T#T#T#T#T#T#T",
".3#TblbFbF#hbF#hbF#h.g#h#h.P#T#T#T.P#U#T#T#T.P#h#h#hbF#hbF#h#h#h#h#hbF#h#h.P.Pbl#T#T#T#Tbl.Pbl#U#T#U#U#U#U.3axaA.3bl#hbF#h#h.P#UbO.P#hbl.P.P.P.Pbl.P",
"#hbo#hbF#h#hbF#h#h.g#h#I.P.Pblbl.Pblblblbl#h.P#hbo#h.P.P#h.P#h#hbF#hbF#h#h.Pblbl.Pblbl.Pbl.P.P#h#h#h.P#h.P.Pbl#Ubl#h#h#hbF#h#h#hbFbFbF#h#h#h#h#hbo#h",
"bF#hbFbF#hbmbF#h#h.g#h#h#h#h#hbF#h#h.PbObF.P#h#hbF#h#hbF#h#h#h#h#h#h#h#h#h#h#h#h#h#h#h#h#h#h#h.P#h.P#h#h#h#h#h#h#h#h#h#h#hbFbmbF#h#hbF#hbFbFbF#hbF#h",
"#hbFbF#hbF#hbF#h#h#I#h#h#h#h#h#h#h#h#hbF#h#hbF#hbF#h#h#h#h#hbF#h#h#h#h#h.P#h#h#h#h#hbF.P#h#h#h#h.P#h#h#h#h#hbF#h#h#h#h#hbF#hbF#hbmbFbF#hbFbF#h#h#h#h",
"#h#hbFbF#IaLbD#q#kbDbDbja4bj.HbDbD#kbjbDbDbja4bja4bj#qbjbDbjaL.T.dbB#h#hbF#h#h#h#h.P#h#h#hbF#h#h#h#h#h#hbF#h#h#h#h#h#h#h#hbF#h#hbF#h#hbmbF#hbmbF#hbm",
"bFbF#hbFblbx.l#k.2bcbcbcbAbcbAbcbPbcbAbcbcbcbAbc.l.l#i.l.lbcbAbcbx.dbF#h#Ibo#hbF#hbF#hbF#h#hbFbF#h#h#hbF#h#h#h#h#h#h#hbFbF#hbmbF#hbmbF#hbF.LbFbF#h#h",
"bF#h#h#h#hbx#E.v.B.4aR#Gafb4.lbAbcbcbc#bbcbcbcbA.l#bbcbAbc.lbcbAbc.dbF#hbF#h#h#hbF#h#h#hbFbFbF#h#h#h#hbh.A.Aa9#3b7#s#s#cbFbFbF#h#h#h#hbmbFbF#hbFbFbF",
"bFbF#hbFbObxbA#f.B#G#f#DaM.b#GbAbA.l.lbxbx.l#bbxaebI#H.W#i#b#k.lbc#s.A.Abh#hbF#hbF#hbF#hbF#h.gbha9.d.H.u#E.u#gbE.Jbb#g#nb9b7aL.T#q.d#H.d#hbFbm#hbFbF",
"#hbF#hbFbObx.lbcbx.JaS#G.J#N#Dbx.Tbj.wbW.y#2b6bJbHa2bn#kbI.Tb9bu.la7..a3#1.Ua2.hb9#sb7b7.HbD#G#f#S.s.s.J.Jbk.Jbx.J.JbDb5#g#gbb#g#g.u#g#E.M#h#hbmbF#h",
"#hbFbF#h#Ibx.lbA.l.B#N.b.6aMaY.ab.b.bH.e#na0bJbJ#V.zbf#2b6ak#g.W#ia7#Y#1bEbpbEbpbEbEbb.sbbbebebe.Jbe.Jbk.l.l.l.lbxbxbkbbbbbb.Jbb#g.X.u.XbD#I.LbF#h#h",
"#h#h#hbF#h#kbA.l#b#a.b#NaM#N.baMaY.MbHbH#l#lb.#j#obW.Sa7a7.M#b.W.Wa7a3.Xbb.s.Jbe.Jbe.Jbe.J.Jbkbkbkbkbkbxbxbx.l.lbxbxbk.JbD.Jbx.Jbb#f.j.sbk.LbF#hbFbF",
".P#hbF#hbF#k#bbAbx.B.p.5#N.v.b.b#NaL.h#s.wbHa2.S#lagb..ebH#k#H.a#ia3.O.ubEbE.Jbe.sbkbebkbkbkbkbkbkbxbxbxbx.l.lbN.lbxbpbDbkbDbkbk.2.JbEbb.2#hbS.L#hbF",
"#T#T.PbObF#q.lbA#b.J.B.b#9.B.5#N.v.O.Oa3#D.f.ha0a7bHbH.e.SbHbHbk.Wa7.O.X#g#gbUah#Pah#PbU.6bkbkbx.Wbxbk.l.Wb4aSaSbxbkbk.Jbxbkbxbkbkbk.J.sbx#hbFbFbF.L",
"bF#h#h#h#h#cbAbcbc#b#kaS.J.5.5.b.va3a3.v#Y#Y..a2a7a0.za7a0a0#p#Lbk..bz.X#g.Q#GaS#bbT#JaSa5bN.Q.Qbkbxbk#b#bahbNbpaSbk.Jbxbkbx#ibk#ibk.J.Jbx#hbF#hbmbF",
"bF#h#hbFbF#k.lbG#bbc#b.lbD.b#N#N.v#D.hb9#Dbsb8.SbJbJbJ.Sa7.Sa2bD.W...f.Xbbbb.JbbaSbTbx#GbkaSbLa5bkbxbNbk#baS#b#b.8.J.J.2bp.J#b.Wbk#ibebk#hbS.Lbm#hbm",
"#h#hbF#h#h#cbAbx#EbkbA.lbp#N#Ebk#Gbj#p#sb7#pa0.w.Wa8bW.e..a0.ybI#Sa3#1bDbb.s.J.JaSbT.l#Gbp.8bTbUahaX.8aSa5#GbN.l##aSaS##aS#PbN#i#ibkbCbI.LbFbFbFbmbF",
"#h#hbFbF#h#q.lbxaZ.6#G.8.6.v.J.laBbfbnbnbHbHbnbVbj.r.Za0...Sa0.a.Ha3.XbDbpbD.J.s.8bTbkaS.8.JbTaSb1#Jb1#dbA#W#vbA#5bN#J#5aSbU.l.W#ibCbkbx#hbFbmbF#hbm",
"#h#hbF#hbFbB.laXaM.4.BaY#NaM#kbI.l.HbIbxbkbk#kbjb7.CbW.Sa7a0bfbk.a.O.XbEbE.j#k.saSbT.2aSbx.8bTahahbxa1#v#J##.2#J.6bUbTbUaS.J#b#i.lbMbkbxbF#hbFbmbm#h",
"bF#hbF#h#h#h.JaS#fbcbcbxbn#kb8#H.wbH#H.w#2b7.y.wbH.Zb..S#nb.#j#Sb9#a.u.X#fbEbpbk.8bTbkaS.l.8bTbUaS.8.2.JbT#W.2#JaXbUbA#J.8.l#bbu#i#ibkbIbF#hbF#hbFbm",
"bFbF#hbFbF#hbjbAbcbAbI.T#pbj#H#H#o.Z.ybW.ybWbWaN#V.ea7a7#jbH#Sbkb5bz#1#G#gbDbk.Q.QbTbx.m.JbUbTah.mbT.8aSbTa1bL.t.6bpaS#J#GbkbC#i.WbN.W.2#hbm#hbF#h#h",
"#hbFbF#h#h#h#c#bbAbc.H#l#H#la7a7a0b.a0.e.e.S.S.Sa7a7.S#j#j.hbk.Wa3.f.u.a#g.JaSaSbN#bbx.2bUa1#JbA.8.tbAbp#Jaf#v#bb1#9a1b4.QbC.W#ibkbe.J.T#hbmbF#hbmbF",
"bF#h#hbF#h#hbB.l.lbA#Ha2#2.Sa0bH#jbH.y#na0a7a7.Sa0bHbH#nbfbk.l#Sa3.f.u#G.X#kbp#GaX#G.QaX.8.6bUa5.QbUbUaSa5aS.8#G###v.ma5.J.J.J.Jbk.J.abB#h#h#hbm#h#h",
"#h#hbF#h#hbF#hbDbA.l.T.w#2#nbH.MbfbHbWb0a7.e#n..#j#nbH.abk.l#b#saY#1#1.a#G.Jbx.Jbkbkbkbkbpbxbk.W.l.W.l.WbxbkbxbkaXbcbp.6.jbbbb.s.JbE.U.d#hbmbF#hbSbm",
"#h#hbFbF#h#h#h#qbcbA#s#l#j#Hb0#lbHbHbfbJa2#lbababE.Wbk.W.l.l.la3bz.U#1.u#f.J.J.J.J.J.JbkbkbCbkbkbN#i.l#bbxbxbkbkb4#G#G#G.X#g.j.j.j.j.sba#IbF#h#hbF#h",
"bF#h#h#h#hbFbF.g.J.l.lb7#ja2#V#2#H#o.Z.Z.Z.Z.ZbHa0.J.lbc.l.lbja7#1bs#1#Gbp.J.J.J.J.Jbkbkbkbxbebkbxbkbxbkbxbkbkbx.J.Jbk.s.jbb.u.f.u.X#g#E.d#h#hbmbF#h",
"#h#h#h#h#h#h#h#hbDbc#b.lbrbHa7a7.S.Sa0.Sa0a0bH.ZbHbabx.l.lbka2#a#1.f.u#g#gbE.JbbbE.s.J.Jbkbk.J.Jbkbxbkbp#kbkbx.Jbkbkbp.sbb.sbbbs.fbsaQ.uaL#hbF#hbmbF",
".P#h#h#h#h#h#h#hbO.Jbc.lbDb7#k#l.w.H#Lbn.wa0a7bJbHa2bV.l.l#fa3.Ubz#1.X#f#gbbbDbbbb#f.Jbk.JbkbbbEbbbDbpbbbp.Jbkbk.J.J.Jbp.sbb.j#1#1#1.abs.g#h#h#h#hbm",
"#h#h#h#h#h#h#hbF#haLbc#bbc.W.lbx.WbIbx#ka8#l.ebW#j#j#kbx.Ja2bz.Ubs#E#E#E#EbD#f#E#E.U.2bkbkbk.J.sbpbbbp#k#fbD.J#qbj#q#k#qbjbj#q#q#cbBbBbO#h#h#h#hbm#h",
"#h#hbF#hbF#h#h#h#hbhb4.l.l#b.l#La2.e.eb..VbWb0.S.S.wbIbx#E.gbhbO#h#h#h#I#h#h#hbhbha9.Ta9#cbjaL.H#E#E.Hbjbh#I#h#h#h#h#h#h#h#hbF#h#hbF#h#h.LbFbm#hbSbF",
"bF#h#h#h#h#h#h#h#h#Ia9bxbcbubI#jb.b0#j.ea2a0a0a0#j.J.Wbj#c.gbObO.P#h.g#hbO#h#h#h#h#h#h#h#h#h#h#h#h#h#h#h#h#h#h#h#h#h#h#h#h#hbF#h#h#h#hbF#hbF#hbF#h#h",
"#h#h#h#hbF#h#h#h#h#h#hbj.l#bbx.ebJa0a0bH#Lbna8#SbkbxbD.d.gbO#I.P#I#h#hbObF#h#h#h#h#h#hbO#h#h#h#h#h#h#h#h#h#hbO#h#h#h#h#h#hbF#h#h#hbF#h#h#hbF#h#h#h#h",
"#h#h#h.P#h#h#h#h#h#h#hbh.HbAbc#k#jbHa0.w.Jbk.lbx.W#kbj.P.gbh.PbO.PbO.P.P.P#I#h#h#h#h#h#h.P#h#hbO#h#h.P#Ibo#h#h#h#h.P#h#h#h#h#h#h#h#hbFbF#h#h#hbS#h#h",
"#h#h#h#h#h#h#h#h#h#h#hbObObD.l.lbIbH.e#jbV.W.l.lbIbjbl#hbO.P#I.P#h#I.P#hbO#h#h#h.P.P#h#h#h#h#h#h.P#h#hbO#h#h.P#h#h#h#hbO#h#h#h#h#h#h#h#h#hbFbF#h#h#h",
"bO.P#h#h.PbObF.P#h.P#h#h#h.AbDbc#b#p.ebabk.W.WbI.HbO#I.P#I.P#h#h#h.P#h#h#h#h#h#h#h#h#h.P#h#h#h#h#h.P.P#h#h#h#h#h#h#h#hbF.P#hbF#h#h#h#h#h#h#h#hbF#h#h",
"bO#h#h#h.P#h#h#h#h#h#h#h#h#h#c#k.lb7.ebk#i.W.J.d.P.PbO.PbO#h#h#h#h#hbO#h.P#h#h#I.P#h#h#h#h#h#h#h#h#h#h.P#h#h#h#h#h#h#h#h#h#h#h#h#I#hbF#h#hbF#h#h#h#h",
"#h#h.P#h#h#h#h#h#h#h.P#h#h#h#I.A#kbIbabk.W#f#c.g#IbO.P#h#h#h#h#h#h#h#h#h#I.P#h.P#h#h#h#h#h#hbF#h#hbF#h#h#h#h.P#h#h#h#h#h#h#h#hbF#hbF#h#hbF#hbF#hbFbF",
"bO#h#h.PbObF.P#h.P#I#h#h#h#h#h#h.AbD#k#Sbj.g#hbO#h.P#I.P#h#h#h#h#h#h#h.P#h#h#h#IbobO#h#h#h#h#h#h#h#h#h#h#h.P#h#h#h#hbF#h#h#hbF#h#h#h#h#h#h#h#h#h#h#h",
"#h#h#h#h#h#h#h#h.P#h#h.g#I#h#I#h#h.g#qa9#h#h#h#h#h#hbO#h#h#h#h#h#h#h#h#h#h#h#h#h.P#h#h#h.P#h#h#h#h#h#h.P#h#h#h#h#h#hbF#h#h#h#h#h#h#h#h#hbSbF#h#hbS#h"
};
