/* XPM */
static char *Spain[] = {
/* width height num_colors chars_per_pixel */
"    72    40      251            2",
/* colors */
".. c #2a0b15",
".# c #519cd4",
".a c #af863c",
".b c #f4c524",
".c c #8e141c",
".d c #b18a81",
".e c #90561a",
".f c #b9c2b7",
".g c #d8aa30",
".h c #cce2ea",
".i c #c71e17",
".j c #d9c391",
".k c #bc5028",
".l c #444644",
".m c #db8917",
".n c #60111c",
".o c #bcaa84",
".p c #c86c14",
".q c #eda816",
".r c #903614",
".s c #d6d6c4",
".t c #d7874c",
".u c #333938",
".v c #e2ab7e",
".w c #e1d3b1",
".x c #c83819",
".y c #e5a848",
".z c #b4c4c4",
".A c #c66a58",
".B c #79b2de",
".C c #ebc564",
".D c #d6971d",
".E c #4c0d1b",
".F c #b41819",
".G c #b3d2e4",
".H c #f2d35c",
".I c #af874f",
".J c #daba7b",
".K c #f3e3b9",
".L c #612d19",
".M c #a16e24",
".N c #d47c5e",
".O c #c72b1b",
".P c #f0d497",
".Q c #e59915",
".R c #e05228",
".S c #b12924",
".T c #e7b856",
".U c #c8d6d2",
".V c #edd5a9",
".W c #d78878",
".X c #e9c47b",
".Y c #9bc4e1",
".Z c #dcba6c",
".0 c #b93227",
".1 c #491f20",
".2 c #8f8a84",
".3 c #e8c497",
".4 c #efb91d",
".5 c #e3ba9c",
".6 c #caa865",
".7 c #c0622c",
".8 c #77161d",
".9 c #e03a19",
"#. c #bc9654",
"## c #d9987f",
"#a c #3c1c21",
"#b c #ebcc7c",
"#c c #d69836",
"#d c #90766c",
"#e c #c0801d",
"#f c #cb6d66",
"#g c #47131d",
"#h c #b0201d",
"#i c #fcf8b8",
"#j c #c5d6dd",
"#k c #d8a859",
"#l c #ca891a",
"#m c #d4863c",
"#n c #ccb884",
"#o c #e6bb7e",
"#p c #91a3a9",
"#q c #390d1b",
"#r c #d9a14a",
"#s c #bc4324",
"#t c #ebcc98",
"#u c #cc9214",
"#v c #9e2322",
"#w c #d4e2e3",
"#x c #d62516",
"#y c #e7a734",
"#z c #bcc4c8",
"#A c #de3015",
"#B c #5c6a6c",
"#C c #e1a98f",
"#D c #e7b263",
"#E c #a1afb1",
"#F c #e8ba6a",
"#G c #f1dbad",
"#H c #f0debc",
"#I c #eed37b",
"#J c #f4e9cf",
"#K c #f3db98",
"#L c #c4604c",
"#M c #c19967",
"#N c #cb7569",
"#O c #d17f71",
"#P c #de451d",
"#Q c #cadde3",
"#R c #dcb063",
"#S c #ac4e34",
"#T c #d6901b",
"#U c #cab07f",
"#V c #d5dddc",
"#W c #462622",
"#X c #d8907a",
"#Y c #7e211e",
"#Z c #d67e16",
"#0 c #54131d",
"#1 c #38131f",
"#2 c #9c141c",
"#3 c #c82318",
"#4 c #5c2224",
"#5 c #f7ebb9",
"#6 c #6f3d24",
"#7 c #e4a03c",
"#8 c #b42e44",
"#9 c #a2cbe2",
"a. c #f4cd7f",
"a# c #6c4e34",
"aa c #a87e38",
"ab c #7c5a34",
"ac c #946664",
"ad c #b4a27c",
"ae c #914619",
"af c #746e64",
"ag c #947b64",
"ah c #b8babf",
"ai c #b2711c",
"aj c #9e9e9a",
"ak c #a7631c",
"al c #96bee1",
"am c #bf5758",
"an c #9c8c7c",
"ao c #782e18",
"ap c #f0c644",
"aq c #94652f",
"ar c #c8462c",
"as c #afa8ac",
"at c #b4343c",
"au c #ccc294",
"av c #80461c",
"aw c #d45a14",
"ax c #64a7da",
"ay c #88bbdf",
"az c #ac4634",
"aA c #a03838",
"aB c #84aac4",
"aC c #94724c",
"aD c #443430",
"aE c #984a3c",
"aF c #9c6a68",
"aG c #7c5c54",
"aH c #c15a39",
"aI c #e8bb34",
"aJ c #c47c38",
"aK c #d89a64",
"aL c #daccae",
"aM c #d48864",
"aN c #c6c9b9",
"aO c #8cb6d4",
"aP c #7c4e4c",
"aQ c #efcb69",
"aR c #b68f50",
"aS c #6c361c",
"aT c #b63b1a",
"aU c #dda183",
"aV c #847a74",
"aW c #b73b46",
"aX c #f4d244",
"aY c #dc5d34",
"aZ c #d43618",
"a0 c #cc624c",
"a1 c #dcb240",
"a2 c #63171c",
"a3 c #c37418",
"a4 c #f0b018",
"a5 c #b0cce1",
"a6 c #909690",
"a7 c #ca9f4c",
"a8 c #6c767c",
"a9 c #e2b091",
"b. c #f6dc81",
"b# c #c7a164",
"ba c #a0938c",
"bb c #aca2ac",
"bc c #d88038",
"bd c #942e24",
"be c #bcd4e0",
"bf c #bc2c1c",
"bg c #ecbe94",
"bh c #7c3e14",
"bi c #b47e30",
"bj c #bc4842",
"bk c #f4db64",
"bl c #a1a8a6",
"bm c #b2b1b2",
"bn c #cc6234",
"bo c #ca9335",
"bp c #ecaa84",
"bq c #cc3a34",
"br c #541c1c",
"bs c #84161c",
"bt c #cc7d19",
"bu c #c48e34",
"bv c #e49c54",
"bw c #d4e5ec",
"bx c #c36360",
"by c #542a24",
"bz c #6c1e14",
"bA c #9c827c",
"bB c #f4be2c",
"bC c #e4a25c",
"bD c #e7af49",
"bE c #cc7356",
"bF c #d99f1d",
"bG c #e8a016",
"bH c #d9a03b",
"bI c #d58f33",
"bJ c #e7af2f",
"bK c #c1cccd",
"bL c #a01c1e",
"bM c #d98f69",
"bN c #cc5034",
"bO c #fce6ac",
"bP c #bc8a7c",
"bQ c #ec3e14",
"bR c #b46614",
"bS c #2c141c",
"bT c #8e1b1e",
"bU c #5c524c",
"bV c #a0766c",
"bW c #cc6662",
"bX c #dca64c",
"bY c #d42c15",
"bZ c #a4c5e3",
"b0 c #cc9946",
"b1 c #d46e64",
"b2 c #bc2019",
"b3 c #d47568",
"b4 c #e49114",
/* pixels */
".u.u#pbe#Q#w#Q#Qbe#Q#j.h#Qa5#Q#Q#j#9bw#Q.h.h.h.h.h#w.hbw#Q#w.h.h#wbw.h.hbwbw#wbwbw#w#Qbw.h#wbwbwbwbwbwbwbwbwbwbwbw#Q.h#w.h#Q.h.h.hbwbw.h.h.h.h.h",
".u.u#p#Q#Q#Q#Q#Qal.G.h.hbe.Y.h#Q#9.Y#Q.h.h.h#wbw.h#w.hbwbwbw#w.h.h.h#Qbwbwbw.h.hbw.h.h.hbw.hbwbwbwbwbwbwbwbwbwbwbwbwbw.h#Q.h.h.hbwbwbw#Q.h.h.h.h",
".u.u#pbK#Q#Q#Q.Y.Bay.G#9.Yay.Ya5al.Y#9.G#Q.h.hbwbw.h#wbw.h.h#w.h#w#Q.h.hbw.h.h#wbwbw#Q#w.h.hbwbwbwbwbwbwbwbwbwbwbwbw.h.h.U#Q.h#w.h.h.h.h.h.h.h.h",
".u.u#pbe.Ga5alala5#9bZalbZala5a5.G.G#9.Gbe#Q#Q#w#Q.h#Q.h#w.h#wbwbwbw.h.h.h#w.hbw.h.hbw.h.hbw.hbwbwbwbwbwbwbwbwbwbw#w.h.h#Q#Q#Q.h.h.h.h.h.h.h.h.h",
".u.u#p#j#j#Q#j#j.ha5be.h#j.G.Gbebe#Q#Q#Q.h#Q#j#V#Q#Q#Q#w#w#Q#w.h.h#w.h#Q#w.hbw.h.h.hbwbw.h.hbw.hbw.hbw.hbwbwbw.hbwbwbw#w.h.h.h.h.h.h.h.h.h.h.h.h",
".u.u#p#j#Q#Q#j#j#j#Q#Q.h#Q#j#Q#Qbe#Q#Q#Q#V#Q#Q#j.U#Q#w#Q#Q.h#Q.h#Q#Q#w.h.hbw.h.h.hbwbw.h.h.hbwbw.h.h.hbwbwbw.hbwbwbwbwbwbw.h.h.h.h.h.h.h.hbw.h.h",
".u.ubl.U#jbKbKbe#zahbmbbbmbmbmbbbbasbmahbmahbmbmasbbah#zbK#Q#V#Q#w.h.h#w.hbw.h#wbw#w.h.hbwbwbwbw.h.hbwbw.h.hbwbwbwbw.hbwbwbw.h.h.h.hbw.h.hbw.h.h",
".u.ublbaazbjaraW#s.Sbq.S#hbf#h#v#h.F#8bL#v#vbT#v#v.SataAaA.2bwbw#Q#w#w.hbwbwbwbw.h.hbwbwbwbwbwbw.hbwbwbw.hbwbwbwbwbwbwbwbw.h.hbw.h.h.hbw.hbw.hbw",
".u.u#EbA#P.9.9aZ.O.ib2.i#x#x#3b2b2b2.i.i.i.Fb2.Fb2#h#hbL.0.2#V#w.h.h#w.hbw#wbw#wbw.hbw.hbwbwbwbw.hbwbwbw.hbwbwbwbwbwbwbwbwbw.h.h.h.h.h.h.h.h.h.h",
".u.l#E.d.9.9aZ.9#3.i.F.F.i#xbNaraw.S.x.i.F.i.F.F.F.FbL#h#hba#Q#w#Q#Q#w#Q#w.h#Q.h.hbwbw.h.h.h#Q.hbwbwbwbwbwbwbwbwbwbwbwbw.hbwbwbw.h#Q.h.h.hbwbw.h",
".u#B.z.d#P.9.9#Abqb2.i#3.i.i#O#DapbDb4.i.F.F.F.F.FbLbLbL#Yba#Q#Q#w.h#Q#w#w.h#w.h.h.h#Q#Q#w.U#Q.hbwbw.hbwbwbwbwbwbwbwbwbwbwbw.h.h.h.h.h.h.h.hbwbw",
"a8#pbKbA#P#A.9#A#3#3.i.i#x.iar#Mb##kawb2.F.F.F.F.F#2.cbs.8aj#V#Q#Q#w.h#w#w.h#Q#Q.h#w#Q#wbw#Q.h.hbw.hbwbwbwbwbwbwbwbwbwbwbw#Q#jaN#z.U.hbwbwbw.hbw",
"#zbKbKbV#P.9.9#A#x#3.O.O.ib2b2bva7#y.xarbIaT.m.F#2.c.8.8a2a6#V.UbK#j#V#V#V#Q#w#w#V#VaNaLaL#n#U#n.6#n.obaagb#aRb#.6.6.6.J.6.6#n.Z.Jad#Q.hbw.h.h.h",
"bebe#jbV#PbQ#A#A#x#xbMbCbc.pb2#ybFbG.xbN.X#F#T#2#2.8.8.8a2#a#6ak.M.a#.#Mb#.6#U.j.J#o#F.XaQ#IaQ#F#Ra1#c.Mbo#R#R.Z.X.C#b.P.P#b.X#b.X#o#V.hbwbw.h.h",
"be#Q.UaF#P.9#A#AbY#xaraKbH.0.i.yap.q.O.ibt#u.r.cbs.nbsa2a2#a.eai#c.y#F#t.P#b#I#I.P#b#I#baQ#I#t#t#D#R.ybo#R.X#b.P#G#K#H#G.V#G.P#t#b.j.Ubw.h#w.h.h",
"#Q.U#jaF.R#A#A#A#x#x#3#rbtaT.ibDaXa4.O#3bc#l.r.8.8.8.8.n.8.1akbi#c#r.3.P#t#I.P#I#K#I.P.V.P.P.w.P#b.T.T#R#o.P.P.K#G#H#H#G#G.V#t#I.w.Xbw#w.h#w#Q.h",
"#j#j#jac.R.9.9#A#xbY.O.ybJ.xb2#yaXa4.Ob2#rbBao.n.8.8.n.E.8byaka3#c#o#t.5a9#t.V.P#t#t#G.V.V.V.V#t.X#F.Z.Z#t.3#X.w#J#J#G#H#G#t#G.PaLaL#Q.h.h.hbw#w",
"#j#j.U#d.R#A#AbYbYb2aT#RbHboaTaJbu.Q#T.ka3#TbR.E.E.8.E.n.8.1ak#e#Ra9bx#O#O#N#faUbWbx.V.V.V#G.Pa.#b.C.X.C.w#f.V#N#J#J.K#H.V#b.V#I.ZaL.h#Qbw#wbwbw",
"#j#Q#jbA.R#A#AbY#3aZ#G.6.g#IbFa1.4.D.4.D#TbGbta2.E.n.E.E.8bybRai#k#f.3bx#Nb3#G#C.3bW.K#J.K#G#G.Pa..5.j.3.wbW#Gb3#J#H.K.3.5#b.V.C.Z.w.h.h.h.h#Q.h",
"bebe#jbAaY.9bY#x.ibf.5#n.T.gbF.gbF#ubF.m#l#u#e.E.n.n.E#0#YaSaibu#maU#G#L.AamaU###Oat#O#fbx#ObW.5bW#O#XbW.AbWbWaW.N#Oam###N###t#b.J.s#wbwbw.h.h.h",
"a5be.Ua6aY.9bY#A.ib2bf#o.6apaIaI.q.q.qbGa3#Zbz.E.n.n.n.n.8avai#T#m#X#i#ibO#t#t.A.5#N#t#i#X.V#Gat#K#N.W#ibj.W#iam#X#iaUa9#i.A#t#b.X#V.h#Q#Q.h.h.h",
".GbebKblaY.9#A#x.i.i.x#b#I#b.Kbk.q.4a4.q.Q.pbz.E.n.E.E.E.8.e#ebo#D#O#t#i#i#i#i#t#O#Ca9#5#8.N#i#f#Cbx.W#ibxb1#ibxb3#iamb3#i#f.V#b#o#Vbw.h#Q.h.h.h",
".Gbe#jbmbn.9#x#AbY.i#3#D#b#b.CaQ.g.q.q.Qb4.p.L.E.E#q#q.E.8ak#lbH#o#Xbj#LbE.W#K#i#f#C#C#ibj#f#i#ObWbg###ibx#f#ibx#N#iam#f#i#f#t#b.j#Vbw.hbw.h.h.h",
"#9.G#j#z.k#P#AbY#xbY.O#o#b#K#t.H.4.q.qbG.Q#Z.L...E#q.E#g#Yak#T.TaUa9#f#F.X.3bx#5#fa9bp#iaW#O#ibx#5aU#f#i#fbx#ibxb1#iambW#i.A.X.3.C#wbw.h#Qbw#Q#Q",
"#9a5#jbK#S.9bY#A#3#3bf#D.K#b#Kb..b.4bGbG.Q.m.L...E.E.n.nbzai.D.C#O.P#tam##.W.W##a9#CaU#ia9#GaUaW.K#5#C#5a9#X#5aU###H.W#X.V###X.X.X#V#wbw#w.hbw#Q",
".YbZbe#zaE#P#3bY#3#3aH#Fa1aI.4.q.4.4.q.q.Q#u.e#q...E...EaS#e#c.X#faU#LaU.W###O.W.PbpaU#iaWa0aM#D#NbE.W#N#O.N#O#O#O#N#N.7aHbE#F.C.X.s#w#w.h#w#Q.h",
".Baya5.UaE.9#xbYb2aH.VaQ.4.b.bbF#l#l.q.qbGbG.Qbh.......EaS#lbHbM#CbWbX.taM#X.5.Pa..W.v#i#fbvbD.y#b#b.P.P.V.P#t#G.P.3#k#cbo#r.T.Z.X.s.hbw#w.h#Q#w",
".Baybe#QaG#P#3#3bj.J#G#I#bb.b.a7a3ai#la4bG.qbG.p.L#q..#qav#T.TbE#O#m#R#o.P.V.Xa..XbE#N#fbEbc.y.y#oaQ.X#t.P.P#t.P.X#k#7#c#c#c#D#F.X.sbw#w#Q#w.h.h",
"axaya5#jaV#s.ib2.A.J.V.H.C#I.H.D.D.Q#u.q.Q.Qb4#Zae#1..#1.ebo.y#FbC#r#R#k#b#F#F#F#o#D#k#k#r#c#cbH.ybD#Fa..Xa..X.X#D.T#7bH#7#r#D#Da..wbw.hbw#w#w#Q",
".Baya5#Qahbd#3.ia0.K#Kapbkbk.HbF.q.q.Q.q.q.mb4.mae#1...1.Mbo#F#rbDbIaRaq#kbXb0bC#ka7b0#r#cbububo#c#rb0#k#r#r#k#kbX#D.y.ybX#rbX#D.3aLbwbwbw#w.h.h",
"aOaO.G.U#QaP#3#3.0bP.I.abo.DbF#e#l.m#e.m.ma3.m#Zae#1..byb0#R#.ab#caaaqa#aa.a.I.aaR.I#..Z.J#Fbob0bob0#r#rb#aRaC.I.6.6#n.j.jauaL.j.j.s.h.h.h.hbw.h",
".YbZ.G.U.Ubl#vb2.F.c.8#0#0#g.1#q#q#q#g#gbrbrbr#0....bSabagan.o.fbm#z.s#V#w#Q.h#V#Q#V#w#w#Q#Q.UaNaNaN.s.U.s#Q#V#Q.U#Q#Q#Q#Q#Q#wbwbwbw.h.h.h.hbw#w",
"a5.GbK#j#j.U#d#v.FbT.8.E#0#0.E.E#g.E.E#q#g.E#g#0#q#1.l#Q#Q#Q.h#w#w#w.h#w.h#w#w#w#w#w#w#w.h#w#w.h.h#w.h#Q#Q#w#Q#V.U#Qbw#w.h.h#w.hbwbw.h.h.h.h.h.h",
"be.G#Q#Qbe.U.UaP#hbT.n#0#0a2.n#g#g#1#q#q#g.E.E#0#g#Waj#w.h#w.h#w.h#wbw.h#w#w#Q.h.hbw.h.h#Q.h#Q.h#Q.h.h#Q#Q#Q#Q#Q#Q#Q.h#w.h.h#wbwbwbwbw.h.h#Q.hbw",
".G.Gbe#Q.U#Q#QaNaG#Ya2.n#1#g#q#q#q#q#q#q#g#q#g#1#Wa6#Q#Q#w#w.h#wbw#wbwbwbwbw#w#w.h.h.h#Q.h#Q#w#w#Q#w#Q#Q#Q#Q#Q.h#V#Q#Q#w#Q#Q#Q#wbw.h.hbw.hbw.h.h",
"ay#9bebe#Qbe#Q#Q.UaV.L#Ya2#0#g#1#q#g#q#1#1#g#1#Waj#Q#w.hbw#Q.h.hbw.h#w.hbw.h#w#Qbw#w#w.hbw.h.h#w.h.h#Q.U#Q#Q#Q#Q#Q.h.h.h.h.h#Q.h.h#w.h.hbw.h.h.h",
"axay#9bebe#Qbe#j#j#QahagaS#4.1#q#q#q..bS#a#aaDbl.U#Q#Q#Q.h.h#Q.h#wbwbw#w.h.h.h#w#wbwbw.h#w.h.h#Q#Q#w#Q#Q#Q#Q#Q.h#w.h.h.h.h.h.h#Q.h.h#w.h#Q.hbw#w",
".#axay#9#Q.U#Q.h#Q#Q#Q#Q#jbbaf.l#W#a#WaDbU.2.U.U#Q#Q#w#Q#Q#Q.hbwbw.hbw.h.h#wbwbwbw#w.h#w#w#Q.h#w#Q.h#Q.U#Q#w#Q.h#w#w#Qbw#w.h.h.h#w.h.h.h.h.h.h.h",
".#.#axalbe#Q#Q#Q#Q#Q.h#Q#Q#Q#Q#Q.UbK.z.Ube#Q#j#Q#Q#Q#Q#Q.h#Q#Q#w.h.hbw#w.h.hbw.h#wbw.hbw.h#w#V.h#w#Q#Q#Q#Q#Q#w.h.h#w.hbw.hbw.h.h.h.h#Q.hbw.h.hbw",
"aB.#axax#9bebe#Q#Q#j#Q#Q.h#Q#Q#j.U#Q#Q#Q#Q#Q.h#Q#Q.U#Q#Q.h.h#w.hbw.h#w.h.hbw.h#wbwbw#wbw.h.h#Q#w#w.h#Q#Q#Q#Q.h#Q.h.hbwbwbw.h.h#Q.h.h.h#w.h.h.h.h"
};
